Courier Primal Bold Italic.ufo
<glyph name="plus" format="2">
  <advance width="1228"/>
  <unicode hex="002B"/>
  <outline>
    <contour>
      <point x="501" y="470" type="line"/>
      <point x="233" y="470" type="line" smooth="yes"/>
      <point x="216" y="470"/>
      <point x="192" y="478"/>
      <point x="184.5" y="490.0" type="qcurve" smooth="yes" name="inserted"/>
      <point x="177" y="502"/>
      <point x="170" y="546"/>
      <point x="170" y="582" type="qcurve" smooth="yes"/>
      <point x="170" y="618"/>
      <point x="177" y="662"/>
      <point x="184.5" y="674.0" type="qcurve" smooth="yes" name="inserted"/>
      <point x="192" y="686"/>
      <point x="216" y="695"/>
      <point x="233" y="695" type="qcurve" smooth="yes"/>
      <point x="501" y="695" type="line"/>
      <point x="501" y="963" type="line" smooth="yes"/>
      <point x="501" y="980"/>
      <point x="510" y="1004"/>
      <point x="522.0" y="1011.5" type="qcurve" smooth="yes" name="inserted"/>
      <point x="534" y="1019"/>
      <point x="578" y="1026"/>
      <point x="614" y="1026" type="qcurve" smooth="yes"/>
      <point x="650" y="1026"/>
      <point x="694" y="1019"/>
      <point x="706.0" y="1011.5" type="qcurve" smooth="yes" name="inserted"/>
      <point x="718" y="1004"/>
      <point x="726" y="980"/>
      <point x="726" y="963" type="qcurve" smooth="yes"/>
      <point x="726" y="695" type="line"/>
      <point x="995" y="695" type="line" smooth="yes"/>
      <point x="1012" y="695"/>
      <point x="1036" y="686"/>
      <point x="1043.5" y="674.0" type="qcurve" smooth="yes" name="inserted"/>
      <point x="1051" y="662"/>
      <point x="1058" y="618"/>
      <point x="1058" y="582" type="qcurve" smooth="yes"/>
      <point x="1058" y="546"/>
      <point x="1051" y="502"/>
      <point x="1043.5" y="490.0" type="qcurve" smooth="yes" name="inserted"/>
      <point x="1036" y="478"/>
      <point x="1012" y="470"/>
      <point x="995" y="470" type="qcurve" smooth="yes"/>
      <point x="726" y="470" type="line"/>
      <point x="726" y="201" type="line" smooth="yes"/>
      <point x="726" y="184"/>
      <point x="718" y="160"/>
      <point x="706.0" y="152.5" type="qcurve" smooth="yes" name="inserted"/>
      <point x="694" y="145"/>
      <point x="650" y="138"/>
      <point x="614" y="138" type="qcurve" smooth="yes"/>
      <point x="578" y="138"/>
      <point x="534" y="145"/>
      <point x="522.0" y="152.5" type="qcurve" smooth="yes" name="inserted"/>
      <point x="510" y="160"/>
      <point x="501" y="184"/>
      <point x="501" y="201" type="qcurve" smooth="yes"/>
    </contour>
  </outline>
</glyph>
<glyph name="period" format="2">
  <advance width="1228"/>
  <unicode hex="002E"/>
  <outline>
    <contour>
      <point x="550" y="-22" type="qcurve" smooth="yes"/>
      <point x="510" y="-22"/>
      <point x="443" y="7"/>
      <point x="418.5" y="32.0" type="qcurve" smooth="yes" name="inserted"/>
      <point x="394" y="57"/>
      <point x="367" y="123"/>
      <point x="367" y="161" type="qcurve" smooth="yes"/>
      <point x="367" y="211"/>
      <point x="406" y="296"/>
      <point x="439.0" y="327.5" type="qcurve" smooth="yes" name="inserted"/>
      <point x="472" y="359"/>
      <point x="557" y="394"/>
      <point x="603" y="394" type="qcurve" smooth="yes"/>
      <point x="643" y="394"/>
      <point x="710" y="365"/>
      <point x="734.0" y="340.5" type="qcurve" smooth="yes" name="inserted"/>
      <point x="758" y="316"/>
      <point x="785" y="249"/>
      <point x="785" y="212" type="qcurve" smooth="yes"/>
      <point x="785" y="162"/>
      <point x="746" y="77"/>
      <point x="714.0" y="45.5" type="qcurve" smooth="yes" name="inserted"/>
      <point x="682" y="14"/>
      <point x="596" y="-22"/>
    </contour>
  </outline>
</glyph>
<glyph name="five" format="2">
  <advance width="1228"/>
  <unicode hex="0035"/>
  <outline>
    <contour>
      <point x="175" y="67" type="qcurve" smooth="yes"/>
      <point x="149" y="82"/>
      <point x="142" y="145"/>
      <point x="168" y="203" type="qcurve" smooth="yes"/>
      <point x="182" y="234"/>
      <point x="209" y="270"/>
      <point x="221.5" y="278.5" type="qcurve" smooth="yes" name="inserted"/>
      <point x="234" y="287"/>
      <point x="257" y="288"/>
      <point x="268" y="282" type="qcurve" smooth="yes"/>
      <point x="330" y="248"/>
      <point x="469" y="205"/>
      <point x="540" y="205" type="qcurve" smooth="yes"/>
      <point x="601" y="205"/>
      <point x="691" y="243"/>
      <point x="721.0" y="274.5" type="qcurve" smooth="yes" name="inserted"/>
      <point x="751" y="306"/>
      <point x="780" y="386"/>
      <point x="780" y="428" type="qcurve" smooth="yes"/>
      <point x="780" y="491"/>
      <point x="704" y="559"/>
      <point x="632" y="559" type="qcurve" smooth="yes"/>
      <point x="581" y="559"/>
      <point x="479" y="539"/>
      <point x="434" y="523" type="qcurve" smooth="yes"/>
      <point x="413" y="515"/>
      <point x="367" y="507"/>
      <point x="349" y="507" type="qcurve" smooth="yes"/>
      <point x="284" y="507"/>
      <point x="237" y="537"/>
      <point x="245" y="572" type="qcurve" smooth="yes"/>
      <point x="375" y="1122" type="line" smooth="yes"/>
      <point x="383" y="1157"/>
      <point x="417" y="1187"/>
      <point x="452" y="1187" type="qcurve" smooth="yes"/>
      <point x="1060" y="1187" type="line" smooth="yes"/>
      <point x="1077" y="1187"/>
      <point x="1099" y="1177"/>
      <point x="1104.5" y="1165.0" type="qcurve" smooth="yes" name="inserted"/>
      <point x="1110" y="1153"/>
      <point x="1110" y="1111"/>
      <point x="1104" y="1079" type="qcurve" smooth="yes"/>
      <point x="1098" y="1047"/>
      <point x="1084" y="1006"/>
      <point x="1074.0" y="994.0" type="qcurve" smooth="yes" name="inserted"/>
      <point x="1064" y="982"/>
      <point x="1039" y="972"/>
      <point x="1022" y="972" type="qcurve" smooth="yes"/>
      <point x="580" y="972" type="line"/>
      <point x="527" y="749" type="line"/>
      <point x="577" y="767"/>
      <point x="665" y="786"/>
      <point x="715" y="786" type="qcurve" smooth="yes"/>
      <point x="797" y="786"/>
      <point x="922" y="736"/>
      <point x="964.0" y="692.5" type="qcurve" smooth="yes" name="inserted"/>
      <point x="1006" y="649"/>
      <point x="1048" y="528"/>
      <point x="1048" y="458" type="qcurve" smooth="yes"/>
      <point x="1048" y="373"/>
      <point x="996" y="203"/>
      <point x="941" y="136" type="qcurve" smooth="yes"/>
      <point x="881" y="63"/>
      <point x="677" y="-22"/>
      <point x="520" y="-22" type="qcurve" smooth="yes"/>
      <point x="424" y="-22"/>
      <point x="245" y="26"/>
    </contour>
  </outline>
</glyph>
<glyph name="seven" format="2">
  <advance width="1228"/>
  <unicode hex="0037"/>
  <outline>
    <contour>
      <point x="870" y="972" type="line"/>
      <point x="519" y="972" type="line"/>
      <point x="482" y="760" type="line" smooth="yes"/>
      <point x="479" y="743"/>
      <point x="465" y="719"/>
      <point x="451.0" y="711.5" type="qcurve" smooth="yes" name="inserted"/>
      <point x="437" y="704"/>
      <point x="394" y="697"/>
      <point x="362" y="697" type="qcurve" smooth="yes"/>
      <point x="298" y="697"/>
      <point x="246" y="726"/>
      <point x="252" y="760" type="qcurve" smooth="yes"/>
      <point x="315" y="1122" type="line" smooth="yes"/>
      <point x="321" y="1157"/>
      <point x="357" y="1187"/>
      <point x="392" y="1187" type="qcurve" smooth="yes"/>
      <point x="1156" y="1187" type="line" smooth="yes"/>
      <point x="1173" y="1187"/>
      <point x="1195" y="1179"/>
      <point x="1201.0" y="1167.5" type="qcurve" smooth="yes" name="inserted"/>
      <point x="1207" y="1156"/>
      <point x="1207" y="1116"/>
      <point x="1201" y="1084" type="qcurve" smooth="yes"/>
      <point x="1196.5" y="1059.0" name="inserted"/>
      <point x="1185.5" y="1023.0"/>
      <point x="1179" y="1012" type="qcurve" smooth="yes"/>
      <point x="603" y="24" type="line" smooth="yes"/>
      <point x="589" y="0"/>
      <point x="531" y="-22"/>
      <point x="498" y="-22" type="qcurve" smooth="yes"/>
      <point x="466" y="-22"/>
      <point x="403" y="-5"/>
      <point x="381.0" y="11.0" type="qcurve" smooth="yes" name="inserted"/>
      <point x="359" y="27"/>
      <point x="344" y="71"/>
      <point x="359" y="97" type="qcurve" smooth="yes"/>
    </contour>
  </outline>
</glyph>
<glyph name="question" format="2">
  <advance width="1228"/>
  <unicode hex="003F"/>
  <outline>
    <contour>
      <point x="697" y="467" type="line" smooth="yes"/>
      <point x="690" y="444"/>
      <point x="645" y="419"/>
      <point x="587" y="419" type="qcurve" smooth="yes"/>
      <point x="529" y="419"/>
      <point x="493" y="444"/>
      <point x="495" y="467" type="qcurve" smooth="yes"/>
      <point x="514" y="675" type="line" smooth="yes"/>
      <point x="516" y="695"/>
      <point x="533" y="723"/>
      <point x="553" y="726" type="qcurve" smooth="yes"/>
      <point x="666" y="744" type="line" smooth="yes"/>
      <point x="726" y="754"/>
      <point x="800" y="794"/>
      <point x="817" y="829" type="qcurve" smooth="yes"/>
      <point x="824" y="843"/>
      <point x="832" y="877"/>
      <point x="832" y="896" type="qcurve" smooth="yes"/>
      <point x="832" y="943"/>
      <point x="764" y="992"/>
      <point x="695" y="992" type="qcurve" smooth="yes"/>
      <point x="654" y="992"/>
      <point x="575" y="976"/>
      <point x="537" y="962" type="qcurve"/>
      <point x="519" y="860" type="line" smooth="yes"/>
      <point x="516" y="843"/>
      <point x="502" y="819"/>
      <point x="488.5" y="811.5" type="qcurve" smooth="yes" name="inserted"/>
      <point x="475" y="804"/>
      <point x="432" y="797"/>
      <point x="400" y="797" type="qcurve" smooth="yes"/>
      <point x="336" y="797"/>
      <point x="283" y="826"/>
      <point x="289" y="860" type="qcurve" smooth="yes"/>
      <point x="326" y="1070" type="line" smooth="yes"/>
      <point x="330.0" y="1091.5" name="inserted"/>
      <point x="356.0" y="1122.0"/>
      <point x="378" y="1131" type="qcurve" smooth="yes"/>
      <point x="465" y="1168"/>
      <point x="638" y="1209"/>
      <point x="723" y="1209" type="qcurve" smooth="yes"/>
      <point x="812" y="1209"/>
      <point x="949" y="1169"/>
      <point x="995.0" y="1132.0" type="qcurve" smooth="yes" name="inserted"/>
      <point x="1041" y="1095"/>
      <point x="1088" y="991"/>
      <point x="1088" y="927" type="qcurve" smooth="yes"/>
      <point x="1088" y="882"/>
      <point x="1067" y="788"/>
      <point x="1046" y="749" type="qcurve" smooth="yes"/>
      <point x="1024" y="708"/>
      <point x="962" y="647"/>
      <point x="921.5" y="623.5" type="qcurve" smooth="yes" name="inserted"/>
      <point x="881" y="600"/>
      <point x="781" y="563"/>
      <point x="720" y="548" type="qcurve"/>
    </contour>
    <contour>
      <point x="532" y="-22" type="qcurve" smooth="yes"/>
      <point x="499" y="-22"/>
      <point x="444" y="2"/>
      <point x="423.5" y="22.5" type="qcurve" smooth="yes" name="inserted"/>
      <point x="403" y="43"/>
      <point x="381" y="98"/>
      <point x="381" y="129" type="qcurve" smooth="yes"/>
      <point x="381" y="170"/>
      <point x="413" y="240"/>
      <point x="440.0" y="266.0" type="qcurve" smooth="yes" name="inserted"/>
      <point x="467" y="292"/>
      <point x="538" y="321"/>
      <point x="576" y="321" type="qcurve" smooth="yes"/>
      <point x="609" y="321"/>
      <point x="664" y="297"/>
      <point x="684.0" y="276.5" type="qcurve" smooth="yes" name="inserted"/>
      <point x="704" y="256"/>
      <point x="726" y="202"/>
      <point x="726" y="171" type="qcurve" smooth="yes"/>
      <point x="726" y="130"/>
      <point x="694" y="59"/>
      <point x="667.0" y="33.0" type="qcurve" smooth="yes" name="inserted"/>
      <point x="640" y="7"/>
      <point x="570" y="-22"/>
    </contour>
  </outline>
</glyph>
<glyph name="at" format="2">
  <advance width="1228"/>
  <unicode hex="0040"/>
  <outline>
    <contour>
      <point x="541" y="281" type="qcurve" smooth="yes"/>
      <point x="557" y="281"/>
      <point x="592" y="301"/>
      <point x="610.0" y="318.0" type="qcurve" smooth="yes" name="inserted"/>
      <point x="628" y="335"/>
      <point x="662" y="379"/>
      <point x="677" y="404" type="qcurve" smooth="yes"/>
      <point x="709" y="458"/>
      <point x="739" y="542"/>
      <point x="739" y="580" type="qcurve" smooth="yes"/>
      <point x="739" y="610"/>
      <point x="714" y="643"/>
      <point x="687" y="643" type="qcurve" smooth="yes"/>
      <point x="659" y="643"/>
      <point x="588" y="581"/>
      <point x="556" y="533" type="qcurve" smooth="yes"/>
      <point x="526" y="486"/>
      <point x="489" y="386"/>
      <point x="489" y="348" type="qcurve" smooth="yes"/>
      <point x="489" y="315"/>
      <point x="518" y="281"/>
    </contour>
    <contour>
      <point x="690" y="261" type="qcurve"/>
      <point x="643" y="196"/>
      <point x="533" y="117"/>
      <point x="467" y="117" type="qcurve" smooth="yes"/>
      <point x="397" y="117"/>
      <point x="309" y="215"/>
      <point x="309" y="303" type="qcurve" smooth="yes"/>
      <point x="309" y="356"/>
      <point x="341" y="470"/>
      <point x="369.0" y="525.0" type="qcurve" smooth="yes" name="inserted"/>
      <point x="397" y="580"/>
      <point x="473" y="680"/>
      <point x="517.0" y="718.0" type="qcurve" smooth="yes" name="inserted"/>
      <point x="561" y="756"/>
      <point x="657" y="800"/>
      <point x="705" y="800" type="qcurve" smooth="yes"/>
      <point x="758" y="800"/>
      <point x="809" y="735"/>
      <point x="816" y="685" type="qcurve"/>
      <point x="861" y="754" type="line" smooth="yes"/>
      <point x="867" y="763"/>
      <point x="910" y="764"/>
      <point x="932" y="757" type="qcurve" smooth="yes"/>
      <point x="953" y="751"/>
      <point x="981" y="730"/>
      <point x="976" y="716" type="qcurve" smooth="yes"/>
      <point x="849" y="404" type="line" smooth="yes"/>
      <point x="839.5" y="382.0" name="inserted"/>
      <point x="830.0" y="345.0"/>
      <point x="830" y="330" type="qcurve" smooth="yes"/>
      <point x="830" y="304"/>
      <point x="856" y="278"/>
      <point x="876" y="278" type="qcurve" smooth="yes"/>
      <point x="915" y="278"/>
      <point x="983" y="340"/>
      <point x="1008.0" y="389.5" type="qcurve" smooth="yes" name="inserted"/>
      <point x="1033" y="439"/>
      <point x="1062" y="562"/>
      <point x="1062" y="624" type="qcurve" smooth="yes"/>
      <point x="1062" y="693"/>
      <point x="1021" y="804"/>
      <point x="981.0" y="843.5" type="qcurve" smooth="yes" name="inserted"/>
      <point x="941" y="883"/>
      <point x="824" y="925"/>
      <point x="748" y="925" type="qcurve" smooth="yes"/>
      <point x="665" y="925"/>
      <point x="517" y="871"/>
      <point x="454.5" y="824.5" type="qcurve" smooth="yes" name="inserted"/>
      <point x="392" y="778"/>
      <point x="292" y="655"/>
      <point x="257.0" y="585.0" type="qcurve" smooth="yes" name="inserted"/>
      <point x="222" y="515"/>
      <point x="185" y="366"/>
      <point x="185" y="295" type="qcurve" smooth="yes"/>
      <point x="185" y="228"/>
      <point x="224" y="119"/>
      <point x="262.0" y="80.5" type="qcurve" smooth="yes" name="inserted"/>
      <point x="300" y="42"/>
      <point x="415" y="0"/>
      <point x="490" y="0" type="qcurve" smooth="yes"/>
      <point x="570" y="0"/>
      <point x="701" y="23"/>
      <point x="755" y="40" type="qcurve" smooth="yes"/>
      <point x="773" y="46"/>
      <point x="798" y="24"/>
      <point x="805" y="-19" type="qcurve" smooth="yes"/>
      <point x="811" y="-57"/>
      <point x="797" y="-94"/>
      <point x="780" y="-101" type="qcurve" smooth="yes"/>
      <point x="751" y="-113"/>
      <point x="680" y="-132"/>
      <point x="640.0" y="-138.5" type="qcurve" smooth="yes" name="inserted"/>
      <point x="600" y="-145"/>
      <point x="516" y="-153"/>
      <point x="475" y="-153" type="qcurve" smooth="yes"/>
      <point x="367" y="-153"/>
      <point x="200" y="-90"/>
      <point x="142.0" y="-32.5" type="qcurve" smooth="yes" name="inserted"/>
      <point x="84" y="25"/>
      <point x="24" y="186"/>
      <point x="24" y="285" type="qcurve" smooth="yes"/>
      <point x="24" y="378"/>
      <point x="72" y="568"/>
      <point x="117.0" y="656.0" type="qcurve" smooth="yes" name="inserted"/>
      <point x="162" y="744"/>
      <point x="293" y="898"/>
      <point x="376.0" y="955.0" type="qcurve" smooth="yes" name="inserted"/>
      <point x="459" y="1012"/>
      <point x="657" y="1078"/>
      <point x="770" y="1078" type="qcurve" smooth="yes"/>
      <point x="875" y="1078"/>
      <point x="1041" y="1010"/>
      <point x="1098.0" y="950.0" type="qcurve" smooth="yes" name="inserted"/>
      <point x="1155" y="890"/>
      <point x="1216" y="724"/>
      <point x="1216" y="627" type="qcurve" smooth="yes"/>
      <point x="1216" y="527"/>
      <point x="1163" y="344"/>
      <point x="1114.0" y="274.5" type="qcurve" smooth="yes" name="inserted"/>
      <point x="1065" y="205"/>
      <point x="927" y="122"/>
      <point x="842" y="122" type="qcurve" smooth="yes"/>
      <point x="770" y="122"/>
      <point x="695" y="200"/>
    </contour>
  </outline>
</glyph>
<glyph name="F" format="2">
  <advance width="1228"/>
  <unicode hex="0046"/>
  <outline>
    <contour>
      <point x="353" y="982" type="line"/>
      <point x="226" y="982" type="line" smooth="yes"/>
      <point x="209" y="982"/>
      <point x="187" y="990"/>
      <point x="181.0" y="1001.0" type="qcurve" smooth="yes" name="inserted"/>
      <point x="175" y="1012"/>
      <point x="175" y="1052"/>
      <point x="181" y="1084" type="qcurve" smooth="yes"/>
      <point x="187" y="1116"/>
      <point x="201" y="1156"/>
      <point x="210.5" y="1167.5" type="qcurve" smooth="yes" name="inserted"/>
      <point x="220" y="1179"/>
      <point x="245" y="1187"/>
      <point x="262" y="1187" type="qcurve" smooth="yes"/>
      <point x="1194" y="1187" type="line" smooth="yes"/>
      <point x="1229" y="1187"/>
      <point x="1253" y="1157"/>
      <point x="1247" y="1122" type="qcurve" smooth="yes"/>
      <point x="1194" y="820" type="line" smooth="yes"/>
      <point x="1188" y="786"/>
      <point x="1125" y="757"/>
      <point x="1061" y="757" type="qcurve" smooth="yes"/>
      <point x="997" y="757"/>
      <point x="958" y="786"/>
      <point x="964" y="820" type="qcurve" smooth="yes"/>
      <point x="991" y="972" type="line"/>
      <point x="601" y="972" type="line"/>
      <point x="547" y="667" type="line"/>
      <point x="851" y="667" type="line" smooth="yes"/>
      <point x="868" y="667"/>
      <point x="890" y="657"/>
      <point x="895.5" y="645.0" type="qcurve" smooth="yes" name="inserted"/>
      <point x="901" y="633"/>
      <point x="901" y="591"/>
      <point x="895" y="559" type="qcurve" smooth="yes"/>
      <point x="889" y="527"/>
      <point x="875" y="486"/>
      <point x="865.0" y="474.0" type="qcurve" smooth="yes" name="inserted"/>
      <point x="855" y="462"/>
      <point x="830" y="452"/>
      <point x="813" y="452" type="qcurve" smooth="yes"/>
      <point x="509" y="452" type="line"/>
      <point x="466" y="205" type="line"/>
      <point x="683" y="205" type="line" smooth="yes"/>
      <point x="700" y="205"/>
      <point x="722" y="197"/>
      <point x="727.5" y="185.5" type="qcurve" smooth="yes" name="inserted"/>
      <point x="733" y="174"/>
      <point x="733" y="134"/>
      <point x="727" y="102" type="qcurve" smooth="yes"/>
      <point x="721" y="70"/>
      <point x="708" y="30"/>
      <point x="698.5" y="19.0" type="qcurve" smooth="yes" name="inserted"/>
      <point x="689" y="8"/>
      <point x="664" y="0"/>
      <point x="647" y="0" type="qcurve" smooth="yes"/>
      <point x="53" y="0" type="line" smooth="yes"/>
      <point x="36" y="0"/>
      <point x="13" y="8"/>
      <point x="7.5" y="19.0" type="qcurve" smooth="yes" name="inserted"/>
      <point x="2" y="30"/>
      <point x="1" y="70"/>
      <point x="7" y="102" type="qcurve" smooth="yes"/>
      <point x="13" y="134"/>
      <point x="27" y="174"/>
      <point x="36.5" y="185.5" type="qcurve" smooth="yes" name="inserted"/>
      <point x="46" y="197"/>
      <point x="72" y="205"/>
      <point x="89" y="205" type="qcurve" smooth="yes"/>
      <point x="216" y="205" type="line"/>
    </contour>
  </outline>
</glyph>
<glyph name="G" format="2">
  <advance width="1228"/>
  <unicode hex="0047"/>
  <outline>
    <contour>
      <point x="600" y="205" type="qcurve" smooth="yes"/>
      <point x="655.0" y="205.0" name="inserted"/>
      <point x="762.5" y="220.0"/>
      <point x="815" y="235" type="qcurve"/>
      <point x="844" y="402" type="line"/>
      <point x="651" y="402" type="line" smooth="yes"/>
      <point x="634" y="402"/>
      <point x="612" y="410"/>
      <point x="606.0" y="421.0" type="qcurve" smooth="yes" name="inserted"/>
      <point x="600" y="432"/>
      <point x="600" y="472"/>
      <point x="606" y="504" type="qcurve" smooth="yes"/>
      <point x="612" y="536"/>
      <point x="626" y="576"/>
      <point x="635.5" y="587.5" type="qcurve" smooth="yes" name="inserted"/>
      <point x="645" y="599"/>
      <point x="671" y="607"/>
      <point x="688" y="607" type="qcurve" smooth="yes"/>
      <point x="1162" y="607" type="line" smooth="yes"/>
      <point x="1179" y="607"/>
      <point x="1201" y="599"/>
      <point x="1206.5" y="587.5" type="qcurve" smooth="yes" name="inserted"/>
      <point x="1212" y="576"/>
      <point x="1212" y="536"/>
      <point x="1206" y="504" type="qcurve" smooth="yes"/>
      <point x="1200" y="472"/>
      <point x="1186" y="432"/>
      <point x="1176.5" y="421.0" type="qcurve" smooth="yes" name="inserted"/>
      <point x="1167" y="410"/>
      <point x="1142" y="402"/>
      <point x="1125" y="402" type="qcurve" smooth="yes"/>
      <point x="1094" y="402" type="line"/>
      <point x="1047" y="133" type="line" smooth="yes"/>
      <point x="1042" y="109"/>
      <point x="1018" y="72"/>
      <point x="999" y="64" type="qcurve" smooth="yes"/>
      <point x="901" y="19"/>
      <point x="687" y="-22"/>
      <point x="570" y="-22" type="qcurve" smooth="yes"/>
      <point x="462" y="-22"/>
      <point x="288" y="48"/>
      <point x="226.5" y="112.0" type="qcurve" smooth="yes" name="inserted"/>
      <point x="165" y="176"/>
      <point x="98" y="358"/>
      <point x="98" y="471" type="qcurve" smooth="yes"/>
      <point x="98" y="542"/>
      <point x="123" y="691"/>
      <point x="148.5" y="763.0" type="qcurve" smooth="yes" name="inserted"/>
      <point x="174" y="835"/>
      <point x="248" y="966"/>
      <point x="298" y="1020" type="qcurve" smooth="yes"/>
      <point x="383" y="1113"/>
      <point x="602" y="1209"/>
      <point x="727" y="1209" type="qcurve" smooth="yes"/>
      <point x="821" y="1209"/>
      <point x="946" y="1141"/>
      <point x="975" y="1086" type="qcurve"/>
      <point x="986" y="1146" type="line" smooth="yes"/>
      <point x="992" y="1180"/>
      <point x="1055" y="1209"/>
      <point x="1119" y="1209" type="qcurve" smooth="yes"/>
      <point x="1183" y="1209"/>
      <point x="1222" y="1180"/>
      <point x="1216" y="1146" type="qcurve" smooth="yes"/>
      <point x="1155" y="802" type="line" smooth="yes"/>
      <point x="1149" y="768"/>
      <point x="1084" y="739"/>
      <point x="1012" y="739" type="qcurve" smooth="yes"/>
      <point x="976" y="739"/>
      <point x="932" y="746"/>
      <point x="920.0" y="753.5" type="qcurve" smooth="yes" name="inserted"/>
      <point x="908" y="761"/>
      <point x="902" y="785"/>
      <point x="905" y="802" type="qcurve" smooth="yes"/>
      <point x="920" y="886"/>
      <point x="835" y="982"/>
      <point x="727" y="982" type="qcurve" smooth="yes"/>
      <point x="645" y="982"/>
      <point x="517" y="913"/>
      <point x="470" y="847" type="qcurve" smooth="yes"/>
      <point x="444" y="810"/>
      <point x="405" y="719"/>
      <point x="391.5" y="669.5" type="qcurve" smooth="yes" name="inserted"/>
      <point x="378" y="620"/>
      <point x="364" y="520"/>
      <point x="364" y="475" type="qcurve" smooth="yes"/>
      <point x="364" y="344"/>
      <point x="484" y="205"/>
    </contour>
  </outline>
</glyph>
<glyph name="H" format="2">
  <advance width="1228"/>
  <unicode hex="0048"/>
  <outline>
    <contour>
      <point x="273" y="982" type="line"/>
      <point x="216" y="982" type="line" smooth="yes"/>
      <point x="199" y="982"/>
      <point x="177" y="990"/>
      <point x="171.0" y="1001.0" type="qcurve" smooth="yes" name="inserted"/>
      <point x="165" y="1012"/>
      <point x="165" y="1052"/>
      <point x="171" y="1084" type="qcurve" smooth="yes"/>
      <point x="177" y="1116"/>
      <point x="191" y="1156"/>
      <point x="200.5" y="1167.5" type="qcurve" smooth="yes" name="inserted"/>
      <point x="210" y="1179"/>
      <point x="235" y="1187"/>
      <point x="252" y="1187" type="qcurve" smooth="yes"/>
      <point x="626" y="1187" type="line" smooth="yes"/>
      <point x="643" y="1187"/>
      <point x="665" y="1179"/>
      <point x="671.0" y="1167.5" type="qcurve" smooth="yes" name="inserted"/>
      <point x="677" y="1156"/>
      <point x="677" y="1116"/>
      <point x="671" y="1084" type="qcurve" smooth="yes"/>
      <point x="665" y="1052"/>
      <point x="651" y="1012"/>
      <point x="641.5" y="1001.0" type="qcurve" smooth="yes" name="inserted"/>
      <point x="632" y="990"/>
      <point x="607" y="982"/>
      <point x="590" y="982" type="qcurve" smooth="yes"/>
      <point x="523" y="982" type="line"/>
      <point x="476" y="719" type="line"/>
      <point x="864" y="719" type="line"/>
      <point x="911" y="982" type="line"/>
      <point x="844" y="982" type="line" smooth="yes"/>
      <point x="827" y="982"/>
      <point x="805" y="990"/>
      <point x="799.0" y="1001.0" type="qcurve" smooth="yes" name="inserted"/>
      <point x="793" y="1012"/>
      <point x="793" y="1052"/>
      <point x="799" y="1084" type="qcurve" smooth="yes"/>
      <point x="805" y="1116"/>
      <point x="819" y="1156"/>
      <point x="828.5" y="1167.5" type="qcurve" smooth="yes" name="inserted"/>
      <point x="838" y="1179"/>
      <point x="863" y="1187"/>
      <point x="880" y="1187" type="qcurve" smooth="yes"/>
      <point x="1254" y="1187" type="line" smooth="yes"/>
      <point x="1271" y="1187"/>
      <point x="1293" y="1179"/>
      <point x="1299.0" y="1167.5" type="qcurve" smooth="yes" name="inserted"/>
      <point x="1305" y="1156"/>
      <point x="1305" y="1116"/>
      <point x="1299" y="1084" type="qcurve" smooth="yes"/>
      <point x="1293" y="1052"/>
      <point x="1279" y="1012"/>
      <point x="1269.5" y="1001.0" type="qcurve" smooth="yes" name="inserted"/>
      <point x="1260" y="990"/>
      <point x="1235" y="982"/>
      <point x="1218" y="982" type="qcurve" smooth="yes"/>
      <point x="1161" y="982" type="line"/>
      <point x="1024" y="205" type="line"/>
      <point x="1081" y="205" type="line" smooth="yes"/>
      <point x="1098" y="205"/>
      <point x="1120" y="197"/>
      <point x="1125.5" y="185.5" type="qcurve" smooth="yes" name="inserted"/>
      <point x="1131" y="174"/>
      <point x="1131" y="134"/>
      <point x="1125" y="102" type="qcurve" smooth="yes"/>
      <point x="1119" y="70"/>
      <point x="1106" y="30"/>
      <point x="1096.5" y="19.0" type="qcurve" smooth="yes" name="inserted"/>
      <point x="1087" y="8"/>
      <point x="1062" y="0"/>
      <point x="1045" y="0" type="qcurve" smooth="yes"/>
      <point x="671" y="0" type="line" smooth="yes"/>
      <point x="654" y="0"/>
      <point x="631" y="8"/>
      <point x="625.5" y="19.0" type="qcurve" smooth="yes" name="inserted"/>
      <point x="620" y="30"/>
      <point x="619" y="70"/>
      <point x="625" y="102" type="qcurve" smooth="yes"/>
      <point x="631" y="134"/>
      <point x="645" y="174"/>
      <point x="654.5" y="185.5" type="qcurve" smooth="yes" name="inserted"/>
      <point x="664" y="197"/>
      <point x="690" y="205"/>
      <point x="707" y="205" type="qcurve" smooth="yes"/>
      <point x="774" y="205" type="line"/>
      <point x="826" y="504" type="line"/>
      <point x="438" y="504" type="line"/>
      <point x="386" y="205" type="line"/>
      <point x="453" y="205" type="line" smooth="yes"/>
      <point x="470" y="205"/>
      <point x="492" y="197"/>
      <point x="497.5" y="185.5" type="qcurve" smooth="yes" name="inserted"/>
      <point x="503" y="174"/>
      <point x="503" y="134"/>
      <point x="497" y="102" type="qcurve" smooth="yes"/>
      <point x="491" y="70"/>
      <point x="478" y="30"/>
      <point x="468.5" y="19.0" type="qcurve" smooth="yes" name="inserted"/>
      <point x="459" y="8"/>
      <point x="434" y="0"/>
      <point x="417" y="0" type="qcurve" smooth="yes"/>
      <point x="43" y="0" type="line" smooth="yes"/>
      <point x="26" y="0"/>
      <point x="3" y="8"/>
      <point x="-2.5" y="19.0" type="qcurve" smooth="yes" name="inserted"/>
      <point x="-8" y="30"/>
      <point x="-9" y="70"/>
      <point x="-3" y="102" type="qcurve" smooth="yes"/>
      <point x="3" y="134"/>
      <point x="17" y="174"/>
      <point x="26.5" y="185.5" type="qcurve" smooth="yes" name="inserted"/>
      <point x="36" y="197"/>
      <point x="62" y="205"/>
      <point x="79" y="205" type="qcurve" smooth="yes"/>
      <point x="136" y="205" type="line"/>
    </contour>
  </outline>
</glyph>
<glyph name="I" format="2">
  <advance width="1228"/>
  <unicode hex="0049"/>
  <outline>
    <contour>
      <point x="592" y="982" type="line"/>
      <point x="336" y="982" type="line" smooth="yes"/>
      <point x="319" y="982"/>
      <point x="297" y="990"/>
      <point x="291.0" y="1001.0" type="qcurve" smooth="yes" name="inserted"/>
      <point x="285" y="1012"/>
      <point x="285" y="1052"/>
      <point x="291" y="1084" type="qcurve" smooth="yes"/>
      <point x="297" y="1116"/>
      <point x="311" y="1156"/>
      <point x="320.5" y="1167.5" type="qcurve" smooth="yes" name="inserted"/>
      <point x="330" y="1179"/>
      <point x="355" y="1187"/>
      <point x="372" y="1187" type="qcurve" smooth="yes"/>
      <point x="1114" y="1187" type="line" smooth="yes"/>
      <point x="1131" y="1187"/>
      <point x="1153" y="1179"/>
      <point x="1159.0" y="1167.5" type="qcurve" smooth="yes" name="inserted"/>
      <point x="1165" y="1156"/>
      <point x="1165" y="1116"/>
      <point x="1159" y="1084" type="qcurve" smooth="yes"/>
      <point x="1153" y="1052"/>
      <point x="1139" y="1012"/>
      <point x="1129.5" y="1001.0" type="qcurve" smooth="yes" name="inserted"/>
      <point x="1120" y="990"/>
      <point x="1095" y="982"/>
      <point x="1078" y="982" type="qcurve" smooth="yes"/>
      <point x="842" y="982" type="line"/>
      <point x="705" y="205" type="line"/>
      <point x="961" y="205" type="line" smooth="yes"/>
      <point x="978" y="205"/>
      <point x="1000" y="197"/>
      <point x="1005.5" y="185.5" type="qcurve" smooth="yes" name="inserted"/>
      <point x="1011" y="174"/>
      <point x="1011" y="134"/>
      <point x="1005" y="102" type="qcurve" smooth="yes"/>
      <point x="999" y="70"/>
      <point x="986" y="30"/>
      <point x="976.5" y="19.0" type="qcurve" smooth="yes" name="inserted"/>
      <point x="967" y="8"/>
      <point x="942" y="0"/>
      <point x="925" y="0" type="qcurve" smooth="yes"/>
      <point x="183" y="0" type="line" smooth="yes"/>
      <point x="166" y="0"/>
      <point x="143" y="8"/>
      <point x="137.5" y="19.0" type="qcurve" smooth="yes" name="inserted"/>
      <point x="132" y="30"/>
      <point x="131" y="70"/>
      <point x="137" y="102" type="qcurve" smooth="yes"/>
      <point x="143" y="134"/>
      <point x="157" y="174"/>
      <point x="166.5" y="185.5" type="qcurve" smooth="yes" name="inserted"/>
      <point x="176" y="197"/>
      <point x="202" y="205"/>
      <point x="219" y="205" type="qcurve" smooth="yes"/>
      <point x="455" y="205" type="line"/>
    </contour>
  </outline>
</glyph>
<glyph name="J" format="2">
  <advance width="1228"/>
  <unicode hex="004A"/>
  <outline>
    <contour>
      <point x="466" y="982" type="line" smooth="yes"/>
      <point x="449" y="982"/>
      <point x="427" y="990"/>
      <point x="421.0" y="1001.0" type="qcurve" smooth="yes" name="inserted"/>
      <point x="415" y="1012"/>
      <point x="415" y="1052"/>
      <point x="421" y="1084" type="qcurve" smooth="yes"/>
      <point x="427" y="1116"/>
      <point x="441" y="1156"/>
      <point x="450.5" y="1167.5" type="qcurve" smooth="yes" name="inserted"/>
      <point x="460" y="1179"/>
      <point x="485" y="1187"/>
      <point x="502" y="1187" type="qcurve" smooth="yes"/>
      <point x="1244" y="1187" type="line" smooth="yes"/>
      <point x="1261" y="1187"/>
      <point x="1283" y="1179"/>
      <point x="1289.0" y="1167.5" type="qcurve" smooth="yes" name="inserted"/>
      <point x="1295" y="1156"/>
      <point x="1295" y="1116"/>
      <point x="1289" y="1084" type="qcurve" smooth="yes"/>
      <point x="1283" y="1052"/>
      <point x="1269" y="1012"/>
      <point x="1259.5" y="1001.0" type="qcurve" smooth="yes" name="inserted"/>
      <point x="1250" y="990"/>
      <point x="1225" y="982"/>
      <point x="1208" y="982" type="qcurve" smooth="yes"/>
      <point x="1032" y="982" type="line"/>
      <point x="921" y="353" type="line" smooth="yes"/>
      <point x="904" y="256"/>
      <point x="830" y="115"/>
      <point x="772.0" y="69.0" type="qcurve" smooth="yes" name="inserted"/>
      <point x="714" y="23"/>
      <point x="554" y="-22"/>
      <point x="450" y="-22" type="qcurve" smooth="yes"/>
      <point x="332" y="-22"/>
      <point x="133" y="61"/>
      <point x="69" y="135" type="qcurve" smooth="yes"/>
      <point x="62.0" y="142.5" name="inserted"/>
      <point x="58.0" y="167.5"/>
      <point x="61" y="185" type="qcurve" smooth="yes"/>
      <point x="116" y="499" type="line" smooth="yes"/>
      <point x="122" y="533"/>
      <point x="188" y="562"/>
      <point x="260" y="562" type="qcurve" smooth="yes"/>
      <point x="296" y="562"/>
      <point x="340" y="555"/>
      <point x="351.5" y="547.5" type="qcurve" smooth="yes" name="inserted"/>
      <point x="363" y="540"/>
      <point x="369" y="516"/>
      <point x="366" y="499" type="qcurve" smooth="yes"/>
      <point x="322" y="244" type="line"/>
      <point x="353.5" y="224.5" name="inserted"/>
      <point x="433.0" y="205.0"/>
      <point x="481" y="205" type="qcurve" smooth="yes"/>
      <point x="562" y="205"/>
      <point x="659" y="290"/>
      <point x="676" y="383" type="qcurve" smooth="yes"/>
      <point x="782" y="982" type="line"/>
    </contour>
  </outline>
</glyph>
<glyph name="X" format="2">
  <advance width="1228"/>
  <unicode hex="0058"/>
  <outline>
    <contour>
      <point x="749" y="205" type="line"/>
      <point x="622" y="442" type="line"/>
      <point x="415" y="205" type="line"/>
      <point x="443" y="205" type="line" smooth="yes"/>
      <point x="460" y="205"/>
      <point x="482" y="197"/>
      <point x="487.5" y="185.5" type="qcurve" smooth="yes" name="inserted"/>
      <point x="493" y="174"/>
      <point x="493" y="134"/>
      <point x="487" y="102" type="qcurve" smooth="yes"/>
      <point x="481" y="70"/>
      <point x="468" y="30"/>
      <point x="458.5" y="19.0" type="qcurve" smooth="yes" name="inserted"/>
      <point x="449" y="8"/>
      <point x="424" y="0"/>
      <point x="407" y="0" type="qcurve" smooth="yes"/>
      <point x="23" y="0" type="line" smooth="yes"/>
      <point x="6" y="0"/>
      <point x="-17" y="8"/>
      <point x="-22.5" y="19.0" type="qcurve" smooth="yes" name="inserted"/>
      <point x="-28" y="30"/>
      <point x="-29" y="70"/>
      <point x="-23" y="102" type="qcurve" smooth="yes"/>
      <point x="-17" y="134"/>
      <point x="-3" y="174"/>
      <point x="6.5" y="185.5" type="qcurve" smooth="yes" name="inserted"/>
      <point x="16" y="197"/>
      <point x="42" y="205"/>
      <point x="59" y="205" type="qcurve" smooth="yes"/>
      <point x="121" y="205" type="line"/>
      <point x="490" y="622" type="line"/>
      <point x="296" y="982" type="line"/>
      <point x="226" y="982" type="line" smooth="yes"/>
      <point x="209" y="982"/>
      <point x="187" y="990"/>
      <point x="181.0" y="1001.0" type="qcurve" smooth="yes" name="inserted"/>
      <point x="175" y="1012"/>
      <point x="175" y="1052"/>
      <point x="181" y="1084" type="qcurve" smooth="yes"/>
      <point x="187" y="1116"/>
      <point x="201" y="1156"/>
      <point x="210.5" y="1167.5" type="qcurve" smooth="yes" name="inserted"/>
      <point x="220" y="1179"/>
      <point x="245" y="1187"/>
      <point x="262" y="1187" type="qcurve" smooth="yes"/>
      <point x="656" y="1187" type="line" smooth="yes"/>
      <point x="673" y="1187"/>
      <point x="695" y="1179"/>
      <point x="701.0" y="1167.5" type="qcurve" smooth="yes" name="inserted"/>
      <point x="707" y="1156"/>
      <point x="707" y="1116"/>
      <point x="701" y="1084" type="qcurve" smooth="yes"/>
      <point x="695" y="1052"/>
      <point x="681" y="1012"/>
      <point x="671.5" y="1001.0" type="qcurve" smooth="yes" name="inserted"/>
      <point x="662" y="990"/>
      <point x="637" y="982"/>
      <point x="620" y="982" type="qcurve" smooth="yes"/>
      <point x="577" y="982" type="line"/>
      <point x="682" y="780" type="line"/>
      <point x="858" y="982" type="line"/>
      <point x="844" y="982" type="line" smooth="yes"/>
      <point x="827" y="982"/>
      <point x="805" y="990"/>
      <point x="799.0" y="1001.0" type="qcurve" smooth="yes" name="inserted"/>
      <point x="793" y="1012"/>
      <point x="793" y="1052"/>
      <point x="799" y="1084" type="qcurve" smooth="yes"/>
      <point x="805" y="1116"/>
      <point x="819" y="1156"/>
      <point x="828.5" y="1167.5" type="qcurve" smooth="yes" name="inserted"/>
      <point x="838" y="1179"/>
      <point x="863" y="1187"/>
      <point x="880" y="1187" type="qcurve" smooth="yes"/>
      <point x="1244" y="1187" type="line" smooth="yes"/>
      <point x="1261" y="1187"/>
      <point x="1283" y="1179"/>
      <point x="1289.0" y="1167.5" type="qcurve" smooth="yes" name="inserted"/>
      <point x="1295" y="1156"/>
      <point x="1295" y="1116"/>
      <point x="1289" y="1084" type="qcurve" smooth="yes"/>
      <point x="1283" y="1052"/>
      <point x="1269" y="1012"/>
      <point x="1259.5" y="1001.0" type="qcurve" smooth="yes" name="inserted"/>
      <point x="1250" y="990"/>
      <point x="1225" y="982"/>
      <point x="1208" y="982" type="qcurve" smooth="yes"/>
      <point x="1152" y="982" type="line"/>
      <point x="813" y="597" type="line"/>
      <point x="1030" y="205" type="line"/>
      <point x="1101" y="205" type="line" smooth="yes"/>
      <point x="1118" y="205"/>
      <point x="1140" y="197"/>
      <point x="1145.5" y="185.5" type="qcurve" smooth="yes" name="inserted"/>
      <point x="1151" y="174"/>
      <point x="1151" y="134"/>
      <point x="1145" y="102" type="qcurve" smooth="yes"/>
      <point x="1139" y="70"/>
      <point x="1126" y="30"/>
      <point x="1116.5" y="19.0" type="qcurve" smooth="yes" name="inserted"/>
      <point x="1107" y="8"/>
      <point x="1082" y="0"/>
      <point x="1065" y="0" type="qcurve" smooth="yes"/>
      <point x="661" y="0" type="line" smooth="yes"/>
      <point x="644" y="0"/>
      <point x="621" y="8"/>
      <point x="615.5" y="19.0" type="qcurve" smooth="yes" name="inserted"/>
      <point x="610" y="30"/>
      <point x="609" y="70"/>
      <point x="615" y="102" type="qcurve" smooth="yes"/>
      <point x="621" y="134"/>
      <point x="635" y="174"/>
      <point x="644.5" y="185.5" type="qcurve" smooth="yes" name="inserted"/>
      <point x="654" y="197"/>
      <point x="680" y="205"/>
      <point x="697" y="205" type="qcurve" smooth="yes"/>
    </contour>
  </outline>
</glyph>
<glyph name="Z" format="2">
  <advance width="1228"/>
  <unicode hex="005A"/>
  <outline>
    <contour>
      <point x="827" y="215" type="line"/>
      <point x="867" y="437" type="line" smooth="yes"/>
      <point x="872" y="471"/>
      <point x="936" y="500"/>
      <point x="1000" y="500" type="qcurve" smooth="yes"/>
      <point x="1032" y="500"/>
      <point x="1072" y="493"/>
      <point x="1083.0" y="485.5" type="qcurve" smooth="yes" name="inserted"/>
      <point x="1094" y="478"/>
      <point x="1100" y="454"/>
      <point x="1097" y="437" type="qcurve" smooth="yes"/>
      <point x="1031" y="65" type="line" smooth="yes"/>
      <point x="1025" y="30"/>
      <point x="990" y="0"/>
      <point x="955" y="0" type="qcurve" smooth="yes"/>
      <point x="141" y="0" type="line" smooth="yes"/>
      <point x="124" y="0"/>
      <point x="101" y="8"/>
      <point x="95.5" y="19.0" type="qcurve" smooth="yes" name="inserted"/>
      <point x="90" y="30"/>
      <point x="89" y="70"/>
      <point x="95" y="102" type="qcurve" smooth="yes"/>
      <point x="101" y="136"/>
      <point x="119" y="181"/>
      <point x="132" y="195" type="qcurve" smooth="yes"/>
      <point x="813" y="972" type="line"/>
      <point x="489" y="972" type="line"/>
      <point x="453" y="770" type="line" smooth="yes"/>
      <point x="447" y="736"/>
      <point x="384" y="707"/>
      <point x="320" y="707" type="qcurve" smooth="yes"/>
      <point x="256" y="707"/>
      <point x="217" y="736"/>
      <point x="223" y="770" type="qcurve" smooth="yes"/>
      <point x="285" y="1122" type="line" smooth="yes"/>
      <point x="291" y="1157"/>
      <point x="327" y="1187"/>
      <point x="362" y="1187" type="qcurve" smooth="yes"/>
      <point x="1146" y="1187" type="line" smooth="yes"/>
      <point x="1163" y="1187"/>
      <point x="1185" y="1179"/>
      <point x="1191.0" y="1167.5" type="qcurve" smooth="yes" name="inserted"/>
      <point x="1197" y="1156"/>
      <point x="1197" y="1116"/>
      <point x="1191" y="1084" type="qcurve" smooth="yes"/>
      <point x="1185" y="1052"/>
      <point x="1165" y="1008"/>
      <point x="1151" y="992" type="qcurve" smooth="yes"/>
      <point x="470" y="215" type="line"/>
    </contour>
  </outline>
</glyph>
<glyph name="bracketright" format="2">
  <advance width="1228"/>
  <unicode hex="005D"/>
  <outline>
    <contour>
      <point x="813" y="1107" type="line"/>
      <point x="490" y="1107" type="line" smooth="yes"/>
      <point x="473" y="1107"/>
      <point x="451" y="1115"/>
      <point x="445.0" y="1126.0" type="qcurve" smooth="yes" name="inserted"/>
      <point x="439" y="1137"/>
      <point x="439" y="1177"/>
      <point x="445" y="1209" type="qcurve" smooth="yes"/>
      <point x="451" y="1241"/>
      <point x="465" y="1281"/>
      <point x="474.5" y="1292.5" type="qcurve" smooth="yes" name="inserted"/>
      <point x="484" y="1304"/>
      <point x="509" y="1312"/>
      <point x="526" y="1312" type="qcurve" smooth="yes"/>
      <point x="1036" y="1312" type="line" smooth="yes"/>
      <point x="1070" y="1312"/>
      <point x="1094" y="1283"/>
      <point x="1088" y="1249" type="qcurve" smooth="yes"/>
      <point x="809" y="-330" type="line" smooth="yes"/>
      <point x="803" y="-364"/>
      <point x="769" y="-393"/>
      <point x="735" y="-393" type="qcurve" smooth="yes"/>
      <point x="225" y="-393" type="line" smooth="yes"/>
      <point x="208" y="-393"/>
      <point x="186" y="-385"/>
      <point x="180.0" y="-373.5" type="qcurve" smooth="yes" name="inserted"/>
      <point x="174" y="-362"/>
      <point x="174" y="-322"/>
      <point x="180" y="-290" type="qcurve" smooth="yes"/>
      <point x="186" y="-258"/>
      <point x="200" y="-218"/>
      <point x="209.5" y="-207.0" type="qcurve" smooth="yes" name="inserted"/>
      <point x="219" y="-196"/>
      <point x="244" y="-188"/>
      <point x="261" y="-188" type="qcurve" smooth="yes"/>
      <point x="584" y="-188" type="line"/>
    </contour>
  </outline>
</glyph>
<glyph name="underscore" format="2">
  <advance width="1228"/>
  <unicode hex="005F"/>
  <outline>
    <contour>
      <point x="-65" y="-513" type="line" smooth="yes"/>
      <point x="-74" y="-513"/>
      <point x="-86" y="-505"/>
      <point x="-87.5" y="-493.0" type="qcurve" smooth="yes" name="inserted"/>
      <point x="-89" y="-481"/>
      <point x="-84" y="-437"/>
      <point x="-78" y="-401" type="qcurve" smooth="yes"/>
      <point x="-72" y="-365"/>
      <point x="-61" y="-321"/>
      <point x="-55.0" y="-309.0" type="qcurve" smooth="yes" name="inserted"/>
      <point x="-49" y="-297"/>
      <point x="-34" y="-288"/>
      <point x="-25" y="-288" type="qcurve" smooth="yes"/>
      <point x="1212" y="-288" type="line" smooth="yes"/>
      <point x="1221" y="-288"/>
      <point x="1233" y="-297"/>
      <point x="1234.5" y="-309.0" type="qcurve" smooth="yes" name="inserted"/>
      <point x="1236" y="-321"/>
      <point x="1231" y="-365"/>
      <point x="1225" y="-401" type="qcurve" smooth="yes"/>
      <point x="1219" y="-437"/>
      <point x="1207" y="-481"/>
      <point x="1201.0" y="-493.0" type="qcurve" smooth="yes" name="inserted"/>
      <point x="1195" y="-505"/>
      <point x="1181" y="-513"/>
      <point x="1172" y="-513" type="qcurve" smooth="yes"/>
    </contour>
  </outline>
</glyph>
<glyph name="grave" format="2">
  <advance width="1228"/>
  <unicode hex="0060"/>
  <outline>
    <contour>
      <point x="941" y="1145" type="line" smooth="yes"/>
      <point x="961" y="1133"/>
      <point x="972" y="1094"/>
      <point x="964" y="1072" type="qcurve" smooth="yes"/>
      <point x="956" y="1049"/>
      <point x="920" y="1026"/>
      <point x="896" y="1033" type="qcurve" smooth="yes"/>
      <point x="416" y="1158" type="line" smooth="yes"/>
      <point x="390" y="1165"/>
      <point x="383" y="1232"/>
      <point x="413" y="1301" type="qcurve" smooth="yes"/>
      <point x="443" y="1369"/>
      <point x="505" y="1408"/>
      <point x="533" y="1392" type="qcurve" smooth="yes"/>
    </contour>
  </outline>
</glyph>
<glyph name="f" format="2">
  <advance width="1228"/>
  <unicode hex="0066"/>
  <outline>
    <contour>
      <point x="954" y="1090" type="qcurve" smooth="yes"/>
      <point x="892" y="1090"/>
      <point x="811" y="1011"/>
      <point x="795" y="924" type="qcurve" smooth="yes"/>
      <point x="785" y="864" type="line"/>
      <point x="1096" y="864" type="line" smooth="yes"/>
      <point x="1113" y="864"/>
      <point x="1135" y="854"/>
      <point x="1140.5" y="842.0" type="qcurve" smooth="yes" name="inserted"/>
      <point x="1146" y="830"/>
      <point x="1146" y="788"/>
      <point x="1140" y="756" type="qcurve" smooth="yes"/>
      <point x="1134" y="724"/>
      <point x="1120" y="683"/>
      <point x="1110.0" y="671.0" type="qcurve" smooth="yes" name="inserted"/>
      <point x="1100" y="659"/>
      <point x="1075" y="649"/>
      <point x="1058" y="649" type="qcurve" smooth="yes"/>
      <point x="747" y="649" type="line"/>
      <point x="625" y="-45" type="line" smooth="yes"/>
      <point x="593" y="-228"/>
      <point x="402" y="-415"/>
      <point x="232" y="-415" type="qcurve" smooth="yes"/>
      <point x="189" y="-415"/>
      <point x="113" y="-405"/>
      <point x="77.5" y="-394.0" type="qcurve" smooth="yes" name="inserted"/>
      <point x="42" y="-383"/>
      <point x="-29" y="-346"/>
      <point x="-67" y="-319" type="qcurve" smooth="yes"/>
      <point x="-99" y="-296"/>
      <point x="-97" y="-234"/>
      <point x="-70" y="-187" type="qcurve" smooth="yes"/>
      <point x="-40.5" y="-136.5" name="inserted"/>
      <point x="19.0" y="-106.0"/>
      <point x="49" y="-126" type="qcurve" smooth="yes"/>
      <point x="74" y="-143"/>
      <point x="118" y="-166"/>
      <point x="139.5" y="-173.5" type="qcurve" smooth="yes" name="inserted"/>
      <point x="161" y="-181"/>
      <point x="205" y="-188"/>
      <point x="230" y="-188" type="qcurve" smooth="yes"/>
      <point x="288" y="-188"/>
      <point x="362" y="-115"/>
      <point x="377" y="-32" type="qcurve" smooth="yes"/>
      <point x="497" y="649" type="line"/>
      <point x="314" y="649" type="line" smooth="yes"/>
      <point x="297" y="649"/>
      <point x="275" y="659"/>
      <point x="269.5" y="671.0" type="qcurve" smooth="yes" name="inserted"/>
      <point x="264" y="683"/>
      <point x="264" y="724"/>
      <point x="270" y="756" type="qcurve" smooth="yes"/>
      <point x="276" y="788"/>
      <point x="290" y="830"/>
      <point x="299.5" y="842.0" type="qcurve" smooth="yes" name="inserted"/>
      <point x="309" y="854"/>
      <point x="335" y="864"/>
      <point x="352" y="864" type="qcurve" smooth="yes"/>
      <point x="535" y="864" type="line"/>
      <point x="548" y="937" type="line" smooth="yes"/>
      <point x="581" y="1124"/>
      <point x="778" y="1317"/>
      <point x="952" y="1317" type="qcurve" smooth="yes"/>
      <point x="1023" y="1317"/>
      <point x="1169" y="1291"/>
      <point x="1246" y="1260" type="qcurve" smooth="yes"/>
      <point x="1262" y="1254"/>
      <point x="1285" y="1234"/>
      <point x="1290.0" y="1218.5" type="qcurve" smooth="yes" name="inserted"/>
      <point x="1295" y="1203"/>
      <point x="1290" y="1158"/>
      <point x="1278" y="1127" type="qcurve" smooth="yes"/>
      <point x="1267" y="1097"/>
      <point x="1241" y="1062"/>
      <point x="1227.5" y="1054.0" type="qcurve" smooth="yes" name="inserted"/>
      <point x="1214" y="1046"/>
      <point x="1184" y="1046"/>
      <point x="1169" y="1051" type="qcurve" smooth="yes"/>
      <point x="1108" y="1071"/>
      <point x="1005" y="1090"/>
    </contour>
  </outline>
</glyph>
<glyph name="h" format="2">
  <advance width="1228"/>
  <unicode hex="0068"/>
  <outline>
    <contour>
      <point x="523" y="774" type="line"/>
      <point x="599" y="862"/>
      <point x="752" y="946"/>
      <point x="833" y="946" type="qcurve" smooth="yes"/>
      <point x="893" y="946"/>
      <point x="989" y="907"/>
      <point x="1022.0" y="871.0" type="qcurve" smooth="yes"/>
      <point x="1055" y="835"/>
      <point x="1091" y="736"/>
      <point x="1091" y="676" type="qcurve" smooth="yes"/>
      <point x="1091" y="658"/>
      <point x="1087" y="619"/>
      <point x="1084" y="600" type="qcurve" smooth="yes"/>
      <point x="1015" y="205" type="line"/>
      <point x="1092" y="205" type="line" smooth="yes"/>
      <point x="1109" y="205"/>
      <point x="1131" y="197"/>
      <point x="1136.5" y="185.5" type="qcurve" smooth="yes"/>
      <point x="1142" y="174"/>
      <point x="1142" y="134"/>
      <point x="1136" y="102" type="qcurve" smooth="yes"/>
      <point x="1130" y="70"/>
      <point x="1117" y="30"/>
      <point x="1107.5" y="19.0" type="qcurve" smooth="yes"/>
      <point x="1098" y="8"/>
      <point x="1073" y="0"/>
      <point x="1056" y="0" type="qcurve" smooth="yes"/>
      <point x="792" y="0" type="line" smooth="yes"/>
      <point x="758" y="0"/>
      <point x="734" y="29"/>
      <point x="740" y="63" type="qcurve" smooth="yes"/>
      <point x="827" y="561" type="line" smooth="yes"/>
      <point x="830.0" y="576.5"/>
      <point x="833.0" y="605.5"/>
      <point x="833" y="619" type="qcurve" smooth="yes"/>
      <point x="833" y="667"/>
      <point x="790" y="719"/>
      <point x="738" y="719" type="qcurve" smooth="yes"/>
      <point x="693" y="719"/>
      <point x="600" y="653"/>
      <point x="559.0" y="599.0" type="qcurve" smooth="yes"/>
      <point x="518" y="545"/>
      <point x="457" y="408"/>
      <point x="445" y="338" type="qcurve" smooth="yes"/>
      <point x="398" y="63" type="line" smooth="yes"/>
      <point x="392" y="29"/>
      <point x="358" y="0"/>
      <point x="324" y="0" type="qcurve" smooth="yes"/>
      <point x="200" y="0" type="line" smooth="yes"/>
      <point x="166" y="0"/>
      <point x="142" y="29"/>
      <point x="148" y="63" type="qcurve" smooth="yes"/>
      <point x="332" y="1107" type="line"/>
      <point x="235" y="1107" type="line" smooth="yes"/>
      <point x="218" y="1107"/>
      <point x="196" y="1115"/>
      <point x="190.0" y="1126.0" type="qcurve" smooth="yes"/>
      <point x="184" y="1137"/>
      <point x="184" y="1177"/>
      <point x="190" y="1209" type="qcurve" smooth="yes"/>
      <point x="196" y="1241"/>
      <point x="210" y="1281"/>
      <point x="219.5" y="1292.5" type="qcurve" smooth="yes"/>
      <point x="229" y="1304"/>
      <point x="254" y="1312"/>
      <point x="271" y="1312" type="qcurve" smooth="yes"/>
      <point x="555" y="1312" type="line" smooth="yes"/>
      <point x="589" y="1312"/>
      <point x="613" y="1283"/>
      <point x="607" y="1249" type="qcurve" smooth="yes"/>
    </contour>
  </outline>
</glyph>
<glyph name="k" format="2">
  <advance width="1228"/>
  <unicode hex="006B"/>
  <outline>
    <contour>
      <point x="780" y="739" type="line"/>
      <point x="737" y="739" type="line" smooth="yes"/>
      <point x="703" y="739"/>
      <point x="680" y="775"/>
      <point x="690" y="831" type="qcurve" smooth="yes"/>
      <point x="695" y="859"/>
      <point x="708" y="895"/>
      <point x="717.5" y="905.5" type="qcurve" smooth="yes"/>
      <point x="727" y="916"/>
      <point x="752" y="924"/>
      <point x="769" y="924" type="qcurve" smooth="yes"/>
      <point x="1183" y="924" type="line" smooth="yes"/>
      <point x="1217" y="924"/>
      <point x="1240" y="887"/>
      <point x="1230" y="831" type="qcurve" smooth="yes"/>
      <point x="1225" y="803"/>
      <point x="1212" y="767"/>
      <point x="1202.5" y="757.0" type="qcurve" smooth="yes"/>
      <point x="1193" y="747"/>
      <point x="1168" y="739"/>
      <point x="1151" y="739" type="qcurve" smooth="yes"/>
      <point x="1121" y="739" type="line"/>
      <point x="691" y="449" type="line"/>
      <point x="729" y="457"/>
      <point x="800" y="448"/>
      <point x="832" y="428" type="qcurve" smooth="yes"/>
      <point x="863" y="408"/>
      <point x="901" y="356"/>
      <point x="914.5" y="328.5" type="qcurve" smooth="yes"/>
      <point x="928" y="301"/>
      <point x="951" y="250"/>
      <point x="968" y="232" type="qcurve" smooth="yes"/>
      <point x="980.0" y="218.5"/>
      <point x="1012.5" y="205.0"/>
      <point x="1033" y="205" type="qcurve" smooth="yes"/>
      <point x="1062" y="205" type="line" smooth="yes"/>
      <point x="1079" y="205"/>
      <point x="1101" y="197"/>
      <point x="1106.5" y="185.5" type="qcurve" smooth="yes"/>
      <point x="1112" y="174"/>
      <point x="1112" y="134"/>
      <point x="1106" y="102" type="qcurve" smooth="yes"/>
      <point x="1100" y="70"/>
      <point x="1087" y="30"/>
      <point x="1077.5" y="19.0" type="qcurve" smooth="yes"/>
      <point x="1068" y="8"/>
      <point x="1043" y="0"/>
      <point x="1026" y="0" type="qcurve" smooth="yes"/>
      <point x="909" y="0" type="line" smooth="yes"/>
      <point x="876" y="0"/>
      <point x="819" y="22"/>
      <point x="793" y="47" type="qcurve" smooth="yes"/>
      <point x="767" y="72"/>
      <point x="733" y="135"/>
      <point x="718.0" y="166.5" type="qcurve" smooth="yes"/>
      <point x="703" y="198"/>
      <point x="670" y="255"/>
      <point x="645" y="276" type="qcurve" smooth="yes"/>
      <point x="627" y="290"/>
      <point x="582" y="304"/>
      <point x="558" y="304" type="qcurve" smooth="yes"/>
      <point x="531" y="304"/>
      <point x="474" y="287"/>
      <point x="450" y="270" type="qcurve" smooth="yes"/>
      <point x="443" y="265" type="line"/>
      <point x="408" y="63" type="line" smooth="yes"/>
      <point x="402" y="29"/>
      <point x="368" y="0"/>
      <point x="334" y="0" type="qcurve" smooth="yes"/>
      <point x="210" y="0" type="line" smooth="yes"/>
      <point x="176" y="0"/>
      <point x="152" y="29"/>
      <point x="158" y="63" type="qcurve" smooth="yes"/>
      <point x="342" y="1107" type="line"/>
      <point x="245" y="1107" type="line" smooth="yes"/>
      <point x="228" y="1107"/>
      <point x="206" y="1115"/>
      <point x="200.0" y="1126.0" type="qcurve" smooth="yes"/>
      <point x="194" y="1137"/>
      <point x="194" y="1177"/>
      <point x="200" y="1209" type="qcurve" smooth="yes"/>
      <point x="206" y="1241"/>
      <point x="220" y="1281"/>
      <point x="229.5" y="1292.5" type="qcurve" smooth="yes"/>
      <point x="239" y="1304"/>
      <point x="264" y="1312"/>
      <point x="281" y="1312" type="qcurve" smooth="yes"/>
      <point x="565" y="1312" type="line" smooth="yes"/>
      <point x="599" y="1312"/>
      <point x="623" y="1283"/>
      <point x="617" y="1249" type="qcurve" smooth="yes"/>
      <point x="491" y="535" type="line"/>
    </contour>
  </outline>
</glyph>
<glyph name="l" format="2">
  <advance width="1228"/>
  <unicode hex="006C"/>
  <outline>
    <contour>
      <point x="305" y="1107" type="line" smooth="yes"/>
      <point x="288" y="1107"/>
      <point x="266" y="1115"/>
      <point x="260.0" y="1126.0" type="qcurve" smooth="yes"/>
      <point x="254" y="1137"/>
      <point x="254" y="1177"/>
      <point x="260" y="1209" type="qcurve" smooth="yes"/>
      <point x="266" y="1241"/>
      <point x="280" y="1281"/>
      <point x="289.5" y="1292.5" type="qcurve" smooth="yes"/>
      <point x="299" y="1304"/>
      <point x="324" y="1312"/>
      <point x="341" y="1312" type="qcurve" smooth="yes"/>
      <point x="761" y="1312" type="line" smooth="yes"/>
      <point x="795" y="1312"/>
      <point x="819" y="1283"/>
      <point x="813" y="1249" type="qcurve" smooth="yes"/>
      <point x="656" y="361" type="line" smooth="yes"/>
      <point x="654" y="347"/>
      <point x="651" y="320"/>
      <point x="651" y="308" type="qcurve" smooth="yes"/>
      <point x="651" y="254"/>
      <point x="700" y="205"/>
      <point x="748" y="205" type="qcurve" smooth="yes"/>
      <point x="773" y="205"/>
      <point x="819" y="212"/>
      <point x="843.5" y="219.5" type="qcurve" smooth="yes"/>
      <point x="868" y="227"/>
      <point x="920" y="250"/>
      <point x="951" y="267" type="qcurve" smooth="yes"/>
      <point x="989" y="287"/>
      <point x="1037" y="253"/>
      <point x="1060" y="204" type="qcurve" smooth="yes"/>
      <point x="1070" y="182"/>
      <point x="1082" y="145"/>
      <point x="1080.5" y="129.0" type="qcurve" smooth="yes"/>
      <point x="1079" y="113"/>
      <point x="1060" y="86"/>
      <point x="1040" y="74" type="qcurve" smooth="yes"/>
      <point x="992" y="47"/>
      <point x="908" y="10"/>
      <point x="868.0" y="-1.0" type="qcurve" smooth="yes"/>
      <point x="828" y="-12"/>
      <point x="749" y="-22"/>
      <point x="706" y="-22" type="qcurve" smooth="yes"/>
      <point x="559" y="-22"/>
      <point x="399" y="132"/>
      <point x="399" y="272" type="qcurve" smooth="yes"/>
      <point x="399.0" y="294.5"/>
      <point x="403.5" y="342.5"/>
      <point x="408" y="368" type="qcurve" smooth="yes"/>
      <point x="538" y="1107" type="line"/>
    </contour>
  </outline>
</glyph>
<glyph name="r" format="2">
  <advance width="1228"/>
  <unicode hex="0072"/>
  <outline>
    <contour>
      <point x="586" y="924" type="line" smooth="yes"/>
      <point x="620" y="924"/>
      <point x="644" y="895"/>
      <point x="638" y="861" type="qcurve" smooth="yes"/>
      <point x="602" y="654" type="line"/>
      <point x="701" y="799"/>
      <point x="913" y="946"/>
      <point x="1010" y="946" type="qcurve" smooth="yes"/>
      <point x="1051.5" y="946.0"/>
      <point x="1128.0" y="918.0"/>
      <point x="1163" y="890" type="qcurve" smooth="yes"/>
      <point x="1198" y="862"/>
      <point x="1203" y="785"/>
      <point x="1172" y="729" type="qcurve" smooth="yes"/>
      <point x="1138" y="668"/>
      <point x="1074" y="630"/>
      <point x="1045" y="647" type="qcurve" smooth="yes"/>
      <point x="1020.5" y="661.0"/>
      <point x="967.5" y="675.0"/>
      <point x="939" y="675" type="qcurve" smooth="yes"/>
      <point x="879" y="675"/>
      <point x="759" y="617"/>
      <point x="707.5" y="565.5" type="qcurve" smooth="yes"/>
      <point x="656" y="514"/>
      <point x="581" y="373"/>
      <point x="567" y="290" type="qcurve" smooth="yes"/>
      <point x="553" y="205" type="line"/>
      <point x="840" y="205" type="line" smooth="yes"/>
      <point x="857" y="205"/>
      <point x="879" y="197"/>
      <point x="884.5" y="185.5" type="qcurve" smooth="yes"/>
      <point x="890" y="174"/>
      <point x="890" y="134"/>
      <point x="884" y="102" type="qcurve" smooth="yes"/>
      <point x="878" y="70"/>
      <point x="865" y="30"/>
      <point x="855.5" y="19.0" type="qcurve" smooth="yes"/>
      <point x="846" y="8"/>
      <point x="821" y="0"/>
      <point x="804" y="0" type="qcurve" smooth="yes"/>
      <point x="120" y="0" type="line" smooth="yes"/>
      <point x="103" y="0"/>
      <point x="80" y="8"/>
      <point x="74.5" y="19.0" type="qcurve" smooth="yes"/>
      <point x="69" y="30"/>
      <point x="68" y="70"/>
      <point x="74" y="102" type="qcurve" smooth="yes"/>
      <point x="80" y="134"/>
      <point x="94" y="174"/>
      <point x="103.5" y="185.5" type="qcurve" smooth="yes"/>
      <point x="113" y="197"/>
      <point x="139" y="205"/>
      <point x="156" y="205" type="qcurve" smooth="yes"/>
      <point x="303" y="205" type="line"/>
      <point x="393" y="719" type="line"/>
      <point x="276" y="719" type="line" smooth="yes"/>
      <point x="259" y="719"/>
      <point x="237" y="727"/>
      <point x="231.0" y="738.0" type="qcurve" smooth="yes"/>
      <point x="225" y="749"/>
      <point x="225" y="789"/>
      <point x="231" y="821" type="qcurve" smooth="yes"/>
      <point x="237" y="853"/>
      <point x="251" y="893"/>
      <point x="260.5" y="904.5" type="qcurve" smooth="yes"/>
      <point x="270" y="916"/>
      <point x="295" y="924"/>
      <point x="312" y="924" type="qcurve" smooth="yes"/>
    </contour>
  </outline>
</glyph>
<glyph name="v" format="2">
  <advance width="1228"/>
  <unicode hex="0076"/>
  <outline>
    <contour>
      <point x="159" y="719" type="line" smooth="yes"/>
      <point x="142" y="719"/>
      <point x="120" y="727"/>
      <point x="114.0" y="738.0" type="qcurve" smooth="yes"/>
      <point x="108" y="749"/>
      <point x="108" y="789"/>
      <point x="114" y="821" type="qcurve" smooth="yes"/>
      <point x="120" y="853"/>
      <point x="134" y="893"/>
      <point x="143.5" y="904.5" type="qcurve" smooth="yes"/>
      <point x="153" y="916"/>
      <point x="178" y="924"/>
      <point x="195" y="924" type="qcurve" smooth="yes"/>
      <point x="586" y="924" type="line" smooth="yes"/>
      <point x="603" y="924"/>
      <point x="625" y="916"/>
      <point x="631.0" y="904.5" type="qcurve" smooth="yes"/>
      <point x="637" y="893"/>
      <point x="637" y="853"/>
      <point x="631" y="821" type="qcurve" smooth="yes"/>
      <point x="625" y="789"/>
      <point x="611" y="749"/>
      <point x="601.5" y="738.0" type="qcurve" smooth="yes"/>
      <point x="592" y="727"/>
      <point x="567" y="719"/>
      <point x="550" y="719" type="qcurve" smooth="yes"/>
      <point x="483" y="719" type="line"/>
      <point x="583" y="278" type="line"/>
      <point x="839" y="719" type="line"/>
      <point x="784" y="719" type="line" smooth="yes"/>
      <point x="767" y="719"/>
      <point x="745" y="727"/>
      <point x="739.0" y="738.0" type="qcurve" smooth="yes"/>
      <point x="733" y="749"/>
      <point x="733" y="789"/>
      <point x="739" y="821" type="qcurve" smooth="yes"/>
      <point x="745" y="853"/>
      <point x="759" y="893"/>
      <point x="768.5" y="904.5" type="qcurve" smooth="yes"/>
      <point x="778" y="916"/>
      <point x="803" y="924"/>
      <point x="820" y="924" type="qcurve" smooth="yes"/>
      <point x="1217" y="924" type="line" smooth="yes"/>
      <point x="1234" y="924"/>
      <point x="1256" y="916"/>
      <point x="1262.0" y="904.5" type="qcurve" smooth="yes"/>
      <point x="1268" y="893"/>
      <point x="1268" y="853"/>
      <point x="1262" y="821" type="qcurve" smooth="yes"/>
      <point x="1256" y="789"/>
      <point x="1242" y="749"/>
      <point x="1232.5" y="738.0" type="qcurve" smooth="yes"/>
      <point x="1223" y="727"/>
      <point x="1198" y="719"/>
      <point x="1181" y="719" type="qcurve" smooth="yes"/>
      <point x="1113" y="719" type="line"/>
      <point x="701" y="43" type="line" smooth="yes"/>
      <point x="681" y="9"/>
      <point x="609" y="-22"/>
      <point x="537" y="-22" type="qcurve" smooth="yes"/>
      <point x="501" y="-22"/>
      <point x="451" y="-14"/>
      <point x="435.0" y="-6.0" type="qcurve" smooth="yes"/>
      <point x="419" y="2"/>
      <point x="401" y="26"/>
      <point x="397" y="43" type="qcurve" smooth="yes"/>
      <point x="225" y="719" type="line"/>
    </contour>
  </outline>
</glyph>
<glyph name="x" format="2">
  <advance width="1228"/>
  <unicode hex="0078"/>
  <outline>
    <contour>
      <point x="143" y="205" type="line"/>
      <point x="454" y="479" type="line"/>
      <point x="252" y="719" type="line"/>
      <point x="199" y="719" type="line" smooth="yes"/>
      <point x="182" y="719"/>
      <point x="160" y="727"/>
      <point x="154.0" y="738.0" type="qcurve" smooth="yes"/>
      <point x="148" y="749"/>
      <point x="148" y="789"/>
      <point x="154" y="821" type="qcurve" smooth="yes"/>
      <point x="160" y="853"/>
      <point x="174" y="893"/>
      <point x="183.5" y="904.5" type="qcurve" smooth="yes"/>
      <point x="193" y="916"/>
      <point x="218" y="924"/>
      <point x="235" y="924" type="qcurve" smooth="yes"/>
      <point x="609" y="924" type="line" smooth="yes"/>
      <point x="626" y="924"/>
      <point x="648" y="916"/>
      <point x="654.0" y="904.5" type="qcurve" smooth="yes"/>
      <point x="660" y="893"/>
      <point x="660" y="853"/>
      <point x="654" y="821" type="qcurve" smooth="yes"/>
      <point x="648" y="789"/>
      <point x="634" y="749"/>
      <point x="624.5" y="738.0" type="qcurve" smooth="yes"/>
      <point x="615" y="727"/>
      <point x="590" y="719"/>
      <point x="573" y="719" type="qcurve" smooth="yes"/>
      <point x="542" y="719" type="line"/>
      <point x="653" y="587" type="line"/>
      <point x="799" y="719" type="line"/>
      <point x="787" y="719" type="line" smooth="yes"/>
      <point x="770" y="719"/>
      <point x="748" y="727"/>
      <point x="742.0" y="738.0" type="qcurve" smooth="yes"/>
      <point x="736" y="749"/>
      <point x="736" y="789"/>
      <point x="742" y="821" type="qcurve" smooth="yes"/>
      <point x="748" y="853"/>
      <point x="762" y="893"/>
      <point x="771.5" y="904.5" type="qcurve" smooth="yes"/>
      <point x="781" y="916"/>
      <point x="806" y="924"/>
      <point x="823" y="924" type="qcurve" smooth="yes"/>
      <point x="1177" y="924" type="line" smooth="yes"/>
      <point x="1194" y="924"/>
      <point x="1216" y="916"/>
      <point x="1222.0" y="904.5" type="qcurve" smooth="yes"/>
      <point x="1228" y="893"/>
      <point x="1228" y="853"/>
      <point x="1222" y="821" type="qcurve" smooth="yes"/>
      <point x="1216" y="789"/>
      <point x="1202" y="749"/>
      <point x="1192.5" y="738.0" type="qcurve" smooth="yes"/>
      <point x="1183" y="727"/>
      <point x="1158" y="719"/>
      <point x="1141" y="719" type="qcurve" smooth="yes"/>
      <point x="1093" y="719" type="line"/>
      <point x="797" y="458" type="line"/>
      <point x="1009" y="205" type="line"/>
      <point x="1061" y="205" type="line" smooth="yes"/>
      <point x="1078" y="205"/>
      <point x="1100" y="197"/>
      <point x="1105.5" y="185.5" type="qcurve" smooth="yes"/>
      <point x="1111" y="174"/>
      <point x="1111" y="134"/>
      <point x="1105" y="102" type="qcurve" smooth="yes"/>
      <point x="1099" y="70"/>
      <point x="1086" y="30"/>
      <point x="1076.5" y="19.0" type="qcurve" smooth="yes"/>
      <point x="1067" y="8"/>
      <point x="1042" y="0"/>
      <point x="1025" y="0" type="qcurve" smooth="yes"/>
      <point x="641" y="0" type="line" smooth="yes"/>
      <point x="624" y="0"/>
      <point x="601" y="8"/>
      <point x="595.5" y="19.0" type="qcurve" smooth="yes"/>
      <point x="590" y="30"/>
      <point x="589" y="70"/>
      <point x="595" y="102" type="qcurve" smooth="yes"/>
      <point x="601" y="134"/>
      <point x="615" y="174"/>
      <point x="624.5" y="185.5" type="qcurve" smooth="yes"/>
      <point x="634" y="197"/>
      <point x="660" y="205"/>
      <point x="677" y="205" type="qcurve" smooth="yes"/>
      <point x="709" y="205" type="line"/>
      <point x="595" y="340" type="line"/>
      <point x="446" y="205" type="line"/>
      <point x="453" y="205" type="line" smooth="yes"/>
      <point x="470" y="205"/>
      <point x="492" y="197"/>
      <point x="497.5" y="185.5" type="qcurve" smooth="yes"/>
      <point x="503" y="174"/>
      <point x="503" y="134"/>
      <point x="497" y="102" type="qcurve" smooth="yes"/>
      <point x="491" y="70"/>
      <point x="478" y="30"/>
      <point x="468.5" y="19.0" type="qcurve" smooth="yes"/>
      <point x="459" y="8"/>
      <point x="434" y="0"/>
      <point x="417" y="0" type="qcurve" smooth="yes"/>
      <point x="63" y="0" type="line" smooth="yes"/>
      <point x="46" y="0"/>
      <point x="23" y="8"/>
      <point x="17.5" y="19.0" type="qcurve" smooth="yes"/>
      <point x="12" y="30"/>
      <point x="11" y="70"/>
      <point x="17" y="102" type="qcurve" smooth="yes"/>
      <point x="23" y="134"/>
      <point x="37" y="174"/>
      <point x="46.5" y="185.5" type="qcurve" smooth="yes"/>
      <point x="56" y="197"/>
      <point x="82" y="205"/>
      <point x="99" y="205" type="qcurve" smooth="yes"/>
    </contour>
  </outline>
</glyph>
<glyph name="bar" format="2">
  <advance width="1228"/>
  <unicode hex="007C"/>
  <outline>
    <contour>
      <point x="643" y="1271" type="line" smooth="yes"/>
      <point x="649" y="1305"/>
      <point x="722" y="1334"/>
      <point x="786" y="1334" type="qcurve" smooth="yes"/>
      <point x="850" y="1334"/>
      <point x="899" y="1305"/>
      <point x="893" y="1271" type="qcurve" smooth="yes"/>
      <point x="606" y="-352" type="line" smooth="yes"/>
      <point x="600" y="-386"/>
      <point x="527" y="-415"/>
      <point x="463" y="-415" type="qcurve" smooth="yes"/>
      <point x="399" y="-415"/>
      <point x="350" y="-386"/>
      <point x="356" y="-352" type="qcurve" smooth="yes"/>
    </contour>
  </outline>
</glyph>
<glyph name="sterling" format="2">
  <advance width="1228"/>
  <unicode hex="00A3"/>
  <outline>
    <contour>
      <point x="355" y="650" type="line"/>
      <point x="342" y="690"/>
      <point x="320" y="772"/>
      <point x="320" y="820" type="qcurve" smooth="yes"/>
      <point x="320" y="883"/>
      <point x="369" y="1021"/>
      <point x="421.5" y="1078.0" type="qcurve" smooth="yes"/>
      <point x="474" y="1135"/>
      <point x="638" y="1209"/>
      <point x="753" y="1209" type="qcurve" smooth="yes"/>
      <point x="834" y="1209"/>
      <point x="1003" y="1165"/>
      <point x="1082" y="1120" type="qcurve" smooth="yes"/>
      <point x="1102" y="1109"/>
      <point x="1121" y="1079"/>
      <point x="1117" y="1057" type="qcurve" smooth="yes"/>
      <point x="1080" y="850" type="line" smooth="yes"/>
      <point x="1074" y="816"/>
      <point x="1011" y="787"/>
      <point x="947" y="787" type="qcurve" smooth="yes"/>
      <point x="883" y="787"/>
      <point x="844" y="816"/>
      <point x="850" y="850" type="qcurve" smooth="yes"/>
      <point x="870" y="961" type="line"/>
      <point x="841" y="976"/>
      <point x="776" y="992"/>
      <point x="732" y="992" type="qcurve" smooth="yes"/>
      <point x="687" y="992"/>
      <point x="625" y="958"/>
      <point x="606.5" y="932.0" type="qcurve" smooth="yes"/>
      <point x="588" y="906"/>
      <point x="572" y="846"/>
      <point x="572" y="819" type="qcurve" smooth="yes"/>
      <point x="572" y="773"/>
      <point x="602" y="694"/>
      <point x="618" y="650" type="qcurve"/>
      <point x="909" y="650" type="line" smooth="yes"/>
      <point x="926" y="650"/>
      <point x="948" y="641"/>
      <point x="953.5" y="629.0" type="qcurve" smooth="yes"/>
      <point x="959" y="617"/>
      <point x="958" y="573"/>
      <point x="952" y="537" type="qcurve" smooth="yes"/>
      <point x="946" y="501"/>
      <point x="931" y="457"/>
      <point x="921.0" y="445.0" type="qcurve" smooth="yes"/>
      <point x="911" y="433"/>
      <point x="886" y="425"/>
      <point x="869" y="425" type="qcurve" smooth="yes"/>
      <point x="629" y="425" type="line"/>
      <point x="612" y="362"/>
      <point x="534" y="260"/>
      <point x="475" y="207" type="qcurve"/>
      <point x="521" y="223"/>
      <point x="592" y="235"/>
      <point x="622" y="235" type="qcurve" smooth="yes"/>
      <point x="646" y="235"/>
      <point x="687" y="230"/>
      <point x="706.5" y="226.5" type="qcurve" smooth="yes"/>
      <point x="726" y="223"/>
      <point x="766" y="218"/>
      <point x="787" y="218" type="qcurve" smooth="yes"/>
      <point x="816" y="218"/>
      <point x="882" y="232"/>
      <point x="925" y="251" type="qcurve" smooth="yes"/>
      <point x="938" y="257"/>
      <point x="964" y="250"/>
      <point x="975.5" y="240.0" type="qcurve" smooth="yes"/>
      <point x="987" y="230"/>
      <point x="1006" y="200"/>
      <point x="1012" y="182" type="qcurve" smooth="yes"/>
      <point x="1018" y="164"/>
      <point x="1024" y="127"/>
      <point x="1022.0" y="109.5" type="qcurve" smooth="yes"/>
      <point x="1020" y="92"/>
      <point x="1007" y="64"/>
      <point x="994" y="56" type="qcurve" smooth="yes"/>
      <point x="958" y="33"/>
      <point x="894" y="3"/>
      <point x="865.0" y="-6.0" type="qcurve" smooth="yes"/>
      <point x="836" y="-15"/>
      <point x="782" y="-22"/>
      <point x="757" y="-22" type="qcurve" smooth="yes"/>
      <point x="721" y="-22"/>
      <point x="654" y="-11"/>
      <point x="618.5" y="-4.5" type="qcurve" smooth="yes"/>
      <point x="583" y="2"/>
      <point x="507" y="13"/>
      <point x="464" y="13" type="qcurve" smooth="yes"/>
      <point x="414" y="13"/>
      <point x="298" y="-7"/>
      <point x="226" y="-34" type="qcurve" smooth="yes"/>
      <point x="214" y="-39"/>
      <point x="189" y="-30"/>
      <point x="177.5" y="-19.5" type="qcurve" smooth="yes"/>
      <point x="166" y="-9"/>
      <point x="147" y="21"/>
      <point x="140" y="39" type="qcurve" smooth="yes"/>
      <point x="127" y="73"/>
      <point x="131" y="143"/>
      <point x="157" y="161" type="qcurve" smooth="yes"/>
      <point x="204" y="193"/>
      <point x="278" y="253"/>
      <point x="305.5" y="284.0" type="qcurve" smooth="yes"/>
      <point x="333" y="315"/>
      <point x="370" y="384"/>
      <point x="380" y="425" type="qcurve"/>
      <point x="217" y="425" type="line" smooth="yes"/>
      <point x="200" y="425"/>
      <point x="178" y="433"/>
      <point x="172.5" y="445.0" type="qcurve" smooth="yes"/>
      <point x="167" y="457"/>
      <point x="168" y="501"/>
      <point x="174" y="537" type="qcurve" smooth="yes"/>
      <point x="180" y="573"/>
      <point x="195" y="617"/>
      <point x="205.0" y="629.0" type="qcurve" smooth="yes"/>
      <point x="215" y="641"/>
      <point x="240" y="650"/>
      <point x="257" y="650" type="qcurve" smooth="yes"/>
    </contour>
  </outline>
</glyph>
<glyph name="acute" format="2">
  <advance width="1228"/>
  <unicode hex="00B4"/>
  <outline>
    <contour>
      <point x="959" y="1392" type="line" smooth="yes"/>
      <point x="987" y="1408"/>
      <point x="1049" y="1369"/>
      <point x="1079" y="1301" type="qcurve" smooth="yes"/>
      <point x="1109" y="1232"/>
      <point x="1102" y="1165"/>
      <point x="1076" y="1158" type="qcurve" smooth="yes"/>
      <point x="596" y="1033" type="line" smooth="yes"/>
      <point x="572" y="1026"/>
      <point x="536" y="1049"/>
      <point x="528" y="1072" type="qcurve" smooth="yes"/>
      <point x="520" y="1094"/>
      <point x="531" y="1133"/>
      <point x="551" y="1145" type="qcurve" smooth="yes"/>
    </contour>
  </outline>
</glyph>
<glyph name="periodcentered" format="2">
  <advance width="1228"/>
  <unicode hex="00B7"/>
  <outline>
    <contour>
      <point x="621" y="378" type="qcurve" smooth="yes"/>
      <point x="581" y="378"/>
      <point x="514" y="407"/>
      <point x="489.5" y="432.0" type="qcurve" smooth="yes"/>
      <point x="465" y="457"/>
      <point x="438" y="523"/>
      <point x="438" y="561" type="qcurve" smooth="yes"/>
      <point x="438" y="611"/>
      <point x="477" y="696"/>
      <point x="510.0" y="727.5" type="qcurve" smooth="yes"/>
      <point x="543" y="759"/>
      <point x="628" y="794"/>
      <point x="674" y="794" type="qcurve" smooth="yes"/>
      <point x="714" y="794"/>
      <point x="781" y="765"/>
      <point x="805.0" y="740.5" type="qcurve" smooth="yes"/>
      <point x="829" y="716"/>
      <point x="856" y="649"/>
      <point x="856" y="612" type="qcurve" smooth="yes"/>
      <point x="856" y="562"/>
      <point x="817" y="477"/>
      <point x="785.0" y="445.5" type="qcurve" smooth="yes"/>
      <point x="753" y="414"/>
      <point x="667" y="378"/>
    </contour>
  </outline>
</glyph>
<glyph name="questiondown" format="2">
  <advance width="1228"/>
  <unicode hex="00BF"/>
  <outline>
    <contour>
      <point x="599" y="720" type="line" smooth="yes"/>
      <point x="606" y="743"/>
      <point x="651" y="768"/>
      <point x="709" y="768" type="qcurve" smooth="yes"/>
      <point x="767" y="768"/>
      <point x="803" y="743"/>
      <point x="801" y="720" type="qcurve" smooth="yes"/>
      <point x="782" y="512" type="line" smooth="yes"/>
      <point x="780" y="492"/>
      <point x="763" y="464"/>
      <point x="743" y="461" type="qcurve" smooth="yes"/>
      <point x="630" y="443" type="line" smooth="yes"/>
      <point x="570" y="433"/>
      <point x="496" y="393"/>
      <point x="479" y="358" type="qcurve" smooth="yes"/>
      <point x="472" y="344"/>
      <point x="464" y="310"/>
      <point x="464" y="291" type="qcurve" smooth="yes"/>
      <point x="464" y="244"/>
      <point x="532" y="195"/>
      <point x="601" y="195" type="qcurve" smooth="yes"/>
      <point x="642" y="195"/>
      <point x="721" y="211"/>
      <point x="759" y="225" type="qcurve"/>
      <point x="777" y="327" type="line" smooth="yes"/>
      <point x="780" y="344"/>
      <point x="794" y="368"/>
      <point x="807.5" y="375.5" type="qcurve" smooth="yes"/>
      <point x="821" y="383"/>
      <point x="864" y="390"/>
      <point x="896" y="390" type="qcurve" smooth="yes"/>
      <point x="960" y="390"/>
      <point x="1013" y="361"/>
      <point x="1007" y="327" type="qcurve" smooth="yes"/>
      <point x="970" y="117" type="line" smooth="yes"/>
      <point x="966.0" y="95.5"/>
      <point x="940.0" y="65.0"/>
      <point x="918" y="56" type="qcurve" smooth="yes"/>
      <point x="831" y="19"/>
      <point x="658" y="-22"/>
      <point x="573" y="-22" type="qcurve" smooth="yes"/>
      <point x="484" y="-22"/>
      <point x="347" y="18"/>
      <point x="301.0" y="55.0" type="qcurve" smooth="yes"/>
      <point x="255" y="92"/>
      <point x="208" y="196"/>
      <point x="208" y="260" type="qcurve" smooth="yes"/>
      <point x="208" y="305"/>
      <point x="229" y="399"/>
      <point x="250" y="438" type="qcurve" smooth="yes"/>
      <point x="272" y="478"/>
      <point x="333" y="540"/>
      <point x="373.5" y="563.5" type="qcurve" smooth="yes"/>
      <point x="414" y="587"/>
      <point x="515" y="624"/>
      <point x="576" y="639" type="qcurve"/>
    </contour>
    <contour>
      <point x="764" y="1209" type="qcurve" smooth="yes"/>
      <point x="797" y="1209"/>
      <point x="852" y="1185"/>
      <point x="872.5" y="1164.5" type="qcurve" smooth="yes"/>
      <point x="893" y="1144"/>
      <point x="915" y="1089"/>
      <point x="915" y="1058" type="qcurve" smooth="yes"/>
      <point x="915" y="1017"/>
      <point x="883" y="947"/>
      <point x="856.0" y="921.0" type="qcurve" smooth="yes"/>
      <point x="829" y="895"/>
      <point x="758" y="866"/>
      <point x="720" y="866" type="qcurve" smooth="yes"/>
      <point x="687" y="866"/>
      <point x="632" y="890"/>
      <point x="612.0" y="910.5" type="qcurve" smooth="yes"/>
      <point x="592" y="931"/>
      <point x="570" y="985"/>
      <point x="570" y="1016" type="qcurve" smooth="yes"/>
      <point x="570" y="1057"/>
      <point x="602" y="1128"/>
      <point x="629.0" y="1154.0" type="qcurve" smooth="yes"/>
      <point x="656" y="1180"/>
      <point x="726" y="1209"/>
    </contour>
  </outline>
</glyph>
<glyph name="ccedilla" format="2">
  <advance width="1228"/>
  <unicode hex="00E7"/>
  <outline>
    <contour>
      <point x="918" y="883" type="line" smooth="yes"/>
      <point x="924" y="917"/>
      <point x="987" y="946"/>
      <point x="1051" y="946" type="qcurve" smooth="yes"/>
      <point x="1115" y="946"/>
      <point x="1154" y="917"/>
      <point x="1148" y="883" type="qcurve" smooth="yes"/>
      <point x="1092" y="562" type="line" smooth="yes"/>
      <point x="1086" y="528"/>
      <point x="1020" y="499"/>
      <point x="948" y="499" type="qcurve" smooth="yes"/>
      <point x="912" y="499"/>
      <point x="868" y="506"/>
      <point x="856.5" y="513.5" type="qcurve" smooth="yes"/>
      <point x="845" y="521"/>
      <point x="839" y="545"/>
      <point x="842" y="562" type="qcurve" smooth="yes"/>
      <point x="847" y="593"/>
      <point x="835" y="649"/>
      <point x="816.0" y="671.0" type="qcurve" smooth="yes"/>
      <point x="797" y="693"/>
      <point x="735" y="719"/>
      <point x="690" y="719" type="qcurve" smooth="yes"/>
      <point x="616" y="719"/>
      <point x="507" y="660"/>
      <point x="471.0" y="614.5" type="qcurve" smooth="yes"/>
      <point x="435" y="569"/>
      <point x="400" y="456"/>
      <point x="400" y="402" type="qcurve" smooth="yes"/>
      <point x="400" y="310"/>
      <point x="505" y="205"/>
      <point x="600" y="205" type="qcurve" smooth="yes"/>
      <point x="680" y="205"/>
      <point x="849" y="256"/>
      <point x="930" y="299" type="qcurve" smooth="yes"/>
      <point x="962" y="316"/>
      <point x="1014" y="282"/>
      <point x="1035" y="225" type="qcurve" smooth="yes"/>
      <point x="1057" y="166"/>
      <point x="1039" y="100"/>
      <point x="1005" y="83" type="qcurve" smooth="yes"/>
      <point x="919" y="41"/>
      <point x="723" y="-13"/>
      <point x="629" y="-20" type="qcurve"/>
      <point x="617" y="-93" type="line"/>
      <point x="666" y="-92"/>
      <point x="740" y="-114"/>
      <point x="764.0" y="-135.0" type="qcurve" smooth="yes"/>
      <point x="788" y="-156"/>
      <point x="812" y="-215"/>
      <point x="812" y="-250" type="qcurve" smooth="yes"/>
      <point x="812" y="-282"/>
      <point x="790" y="-360"/>
      <point x="764" y="-389" type="qcurve" smooth="yes"/>
      <point x="728.5" y="-430.5"/>
      <point x="600.0" y="-472.0"/>
      <point x="507" y="-472" type="qcurve" smooth="yes"/>
      <point x="435" y="-472"/>
      <point x="308" y="-451"/>
      <point x="259" y="-431" type="qcurve" smooth="yes"/>
      <point x="239" y="-423"/>
      <point x="241" y="-376"/>
      <point x="255" y="-346" type="qcurve" smooth="yes"/>
      <point x="268" y="-317"/>
      <point x="304" y="-280"/>
      <point x="324" y="-288" type="qcurve" smooth="yes"/>
      <point x="360" y="-303"/>
      <point x="431" y="-322"/>
      <point x="481" y="-322" type="qcurve" smooth="yes"/>
      <point x="537" y="-322"/>
      <point x="577" y="-283"/>
      <point x="577" y="-258" type="qcurve" smooth="yes"/>
      <point x="577" y="-226"/>
      <point x="509" y="-212"/>
      <point x="459" y="-221" type="qcurve" smooth="yes"/>
      <point x="445" y="-223"/>
      <point x="422" y="-206"/>
      <point x="427" y="-180" type="qcurve" smooth="yes"/>
      <point x="456" y="-10" type="line"/>
      <point x="380" y="6"/>
      <point x="260" y="79"/>
      <point x="219.0" y="131.0" type="qcurve" smooth="yes"/>
      <point x="178" y="183"/>
      <point x="134" y="314"/>
      <point x="134" y="389" type="qcurve" smooth="yes"/>
      <point x="134" y="455"/>
      <point x="166" y="589"/>
      <point x="197.0" y="651.0" type="qcurve" smooth="yes"/>
      <point x="228" y="713"/>
      <point x="320" y="821"/>
      <point x="381.0" y="860.5" type="qcurve" smooth="yes"/>
      <point x="442" y="900"/>
      <point x="591" y="946"/>
      <point x="680" y="946" type="qcurve" smooth="yes"/>
      <point x="761" y="946"/>
      <point x="884" y="884"/>
      <point x="908" y="824" type="qcurve"/>
    </contour>
  </outline>
</glyph>
<glyph name="Eogonek" format="2">
  <advance width="1228"/>
  <unicode hex="0118"/>
  <outline>
    <contour>
      <point x="741" y="-472" type="qcurve" smooth="yes"/>
      <point x="636" y="-472"/>
      <point x="519" y="-381"/>
      <point x="519" y="-300" type="qcurve" smooth="yes"/>
      <point x="519" y="-252"/>
      <point x="554" y="-168"/>
      <point x="585.5" y="-131.0" type="qcurve" smooth="yes"/>
      <point x="617" y="-94"/>
      <point x="701" y="-29"/>
      <point x="751" y="0" type="qcurve"/>
      <point x="53" y="0" type="line" smooth="yes"/>
      <point x="36" y="0"/>
      <point x="13" y="8"/>
      <point x="7.5" y="19.0" type="qcurve" smooth="yes"/>
      <point x="2" y="30"/>
      <point x="1" y="70"/>
      <point x="7" y="102" type="qcurve" smooth="yes"/>
      <point x="13" y="134"/>
      <point x="27" y="174"/>
      <point x="36.5" y="185.5" type="qcurve" smooth="yes"/>
      <point x="46" y="197"/>
      <point x="72" y="205"/>
      <point x="89" y="205" type="qcurve" smooth="yes"/>
      <point x="186" y="205" type="line"/>
      <point x="323" y="982" type="line"/>
      <point x="226" y="982" type="line" smooth="yes"/>
      <point x="209" y="982"/>
      <point x="187" y="990"/>
      <point x="181.0" y="1001.0" type="qcurve" smooth="yes"/>
      <point x="175" y="1012"/>
      <point x="175" y="1052"/>
      <point x="181" y="1084" type="qcurve" smooth="yes"/>
      <point x="187" y="1116"/>
      <point x="201" y="1156"/>
      <point x="210.5" y="1167.5" type="qcurve" smooth="yes"/>
      <point x="220" y="1179"/>
      <point x="245" y="1187"/>
      <point x="262" y="1187" type="qcurve" smooth="yes"/>
      <point x="1174" y="1187" type="line" smooth="yes"/>
      <point x="1209" y="1187"/>
      <point x="1233" y="1157"/>
      <point x="1227" y="1122" type="qcurve" smooth="yes"/>
      <point x="1174" y="820" type="line" smooth="yes"/>
      <point x="1168" y="786"/>
      <point x="1105" y="757"/>
      <point x="1041" y="757" type="qcurve" smooth="yes"/>
      <point x="977" y="757"/>
      <point x="938" y="786"/>
      <point x="944" y="820" type="qcurve" smooth="yes"/>
      <point x="971" y="972" type="line"/>
      <point x="571" y="972" type="line"/>
      <point x="526" y="719" type="line"/>
      <point x="770" y="719" type="line" smooth="yes"/>
      <point x="787" y="719"/>
      <point x="809" y="709"/>
      <point x="814.5" y="697.0" type="qcurve" smooth="yes"/>
      <point x="820" y="685"/>
      <point x="820" y="643"/>
      <point x="814" y="611" type="qcurve" smooth="yes"/>
      <point x="808" y="579"/>
      <point x="794" y="538"/>
      <point x="784.0" y="526.0" type="qcurve" smooth="yes"/>
      <point x="774" y="514"/>
      <point x="749" y="504"/>
      <point x="732" y="504" type="qcurve" smooth="yes"/>
      <point x="488" y="504" type="line"/>
      <point x="437" y="215" type="line"/>
      <point x="847" y="215" type="line"/>
      <point x="883" y="417" type="line" smooth="yes"/>
      <point x="889" y="451"/>
      <point x="952" y="480"/>
      <point x="1020" y="480" type="qcurve" smooth="yes"/>
      <point x="1054" y="480"/>
      <point x="1097" y="473"/>
      <point x="1108.5" y="465.5" type="qcurve" smooth="yes"/>
      <point x="1120" y="458"/>
      <point x="1126" y="434"/>
      <point x="1123" y="417" type="qcurve" smooth="yes"/>
      <point x="1061" y="65" type="line" smooth="yes"/>
      <point x="1055" y="30"/>
      <point x="1020" y="0"/>
      <point x="985" y="0" type="qcurve" smooth="yes"/>
      <point x="970" y="0" type="line"/>
      <point x="927" y="-32"/>
      <point x="853" y="-94"/>
      <point x="826.0" y="-123.5" type="qcurve" smooth="yes"/>
      <point x="799" y="-153"/>
      <point x="769" y="-209"/>
      <point x="769" y="-235" type="qcurve" smooth="yes"/>
      <point x="769" y="-269"/>
      <point x="810" y="-298"/>
      <point x="847" y="-298" type="qcurve" smooth="yes"/>
      <point x="876" y="-298"/>
      <point x="936" y="-290"/>
      <point x="966" y="-285" type="qcurve" smooth="yes"/>
      <point x="987.5" y="-281.0"/>
      <point x="1013.5" y="-313.5"/>
      <point x="1018" y="-350" type="qcurve" smooth="yes"/>
      <point x="1023" y="-388"/>
      <point x="1001" y="-429"/>
      <point x="978" y="-436" type="qcurve" smooth="yes"/>
      <point x="928" y="-452"/>
      <point x="801" y="-472"/>
    </contour>
  </outline>
</glyph>
<glyph name="hbar" format="2">
  <advance width="1228"/>
  <unicode hex="0127"/>
  <outline>
    <contour>
      <point x="555" y="1312" type="line" smooth="yes"/>
      <point x="589" y="1312"/>
      <point x="613" y="1283"/>
      <point x="607" y="1249" type="qcurve" smooth="yes"/>
      <point x="590" y="1155" type="line"/>
      <point x="788" y="1155" type="line" smooth="yes"/>
      <point x="805" y="1155"/>
      <point x="827" y="1147"/>
      <point x="833.0" y="1135.5" type="qcurve" smooth="yes"/>
      <point x="839" y="1124"/>
      <point x="839" y="1084"/>
      <point x="833" y="1052" type="qcurve" smooth="yes"/>
      <point x="827" y="1020"/>
      <point x="813" y="980"/>
      <point x="803.5" y="969.0" type="qcurve" smooth="yes"/>
      <point x="794" y="958"/>
      <point x="769" y="950"/>
      <point x="752" y="950" type="qcurve" smooth="yes"/>
      <point x="554" y="950" type="line"/>
      <point x="509" y="694" type="line"/>
      <point x="585" y="782"/>
      <point x="738" y="866"/>
      <point x="819" y="866" type="qcurve" smooth="yes"/>
      <point x="879" y="866"/>
      <point x="975" y="827"/>
      <point x="1008.0" y="791.0" type="qcurve" smooth="yes"/>
      <point x="1041" y="755"/>
      <point x="1077" y="656"/>
      <point x="1077" y="596" type="qcurve" smooth="yes"/>
      <point x="1077" y="578"/>
      <point x="1073" y="539"/>
      <point x="1070" y="520" type="qcurve" smooth="yes"/>
      <point x="1015" y="205" type="line"/>
      <point x="1092" y="205" type="line" smooth="yes"/>
      <point x="1109" y="205"/>
      <point x="1131" y="197"/>
      <point x="1136.5" y="185.5" type="qcurve" smooth="yes"/>
      <point x="1142" y="174"/>
      <point x="1142" y="134"/>
      <point x="1136" y="102" type="qcurve" smooth="yes"/>
      <point x="1130" y="70"/>
      <point x="1117" y="30"/>
      <point x="1107.5" y="19.0" type="qcurve" smooth="yes"/>
      <point x="1098" y="8"/>
      <point x="1073" y="0"/>
      <point x="1056" y="0" type="qcurve" smooth="yes"/>
      <point x="792" y="0" type="line" smooth="yes"/>
      <point x="758" y="0"/>
      <point x="734" y="29"/>
      <point x="740" y="63" type="qcurve" smooth="yes"/>
      <point x="813" y="481" type="line" smooth="yes"/>
      <point x="816.0" y="496.5"/>
      <point x="819.0" y="525.5"/>
      <point x="819" y="539" type="qcurve" smooth="yes"/>
      <point x="819" y="587"/>
      <point x="776" y="639"/>
      <point x="724" y="639" type="qcurve" smooth="yes"/>
      <point x="679" y="639"/>
      <point x="586" y="573"/>
      <point x="545.0" y="519.0" type="qcurve" smooth="yes"/>
      <point x="504" y="465"/>
      <point x="443" y="328"/>
      <point x="431" y="258" type="qcurve" smooth="yes"/>
      <point x="398" y="63" type="line" smooth="yes"/>
      <point x="392" y="29"/>
      <point x="358" y="0"/>
      <point x="324" y="0" type="qcurve" smooth="yes"/>
      <point x="200" y="0" type="line" smooth="yes"/>
      <point x="166" y="0"/>
      <point x="142" y="29"/>
      <point x="148" y="63" type="qcurve" smooth="yes"/>
      <point x="304" y="950" type="line"/>
      <point x="190" y="950" type="line" smooth="yes"/>
      <point x="173" y="950"/>
      <point x="151" y="958"/>
      <point x="145.0" y="969.0" type="qcurve" smooth="yes"/>
      <point x="139" y="980"/>
      <point x="139" y="1020"/>
      <point x="145" y="1052" type="qcurve" smooth="yes"/>
      <point x="151" y="1084"/>
      <point x="165" y="1124"/>
      <point x="174.5" y="1135.5" type="qcurve" smooth="yes"/>
      <point x="184" y="1147"/>
      <point x="209" y="1155"/>
      <point x="226" y="1155" type="qcurve" smooth="yes"/>
      <point x="340" y="1155" type="line"/>
      <point x="357" y="1249" type="line" smooth="yes"/>
      <point x="363" y="1283"/>
      <point x="397" y="1312"/>
      <point x="431" y="1312" type="qcurve" smooth="yes"/>
    </contour>
  </outline>
</glyph>
<glyph name="dotlessi" format="2">
  <advance width="1228"/>
  <unicode hex="0131"/>
  <outline>
    <contour>
      <point x="306" y="719" type="line" smooth="yes"/>
      <point x="289" y="719"/>
      <point x="267" y="727"/>
      <point x="261.0" y="738.0" type="qcurve" smooth="yes"/>
      <point x="255" y="749"/>
      <point x="255" y="789"/>
      <point x="261" y="821" type="qcurve" smooth="yes"/>
      <point x="267" y="853"/>
      <point x="281" y="893"/>
      <point x="290.5" y="904.5" type="qcurve" smooth="yes"/>
      <point x="300" y="916"/>
      <point x="325" y="924"/>
      <point x="342" y="924" type="qcurve" smooth="yes"/>
      <point x="722" y="924" type="line" smooth="yes"/>
      <point x="756" y="924"/>
      <point x="780" y="895"/>
      <point x="774" y="861" type="qcurve" smooth="yes"/>
      <point x="686" y="361" type="line" smooth="yes"/>
      <point x="684" y="347"/>
      <point x="681" y="320"/>
      <point x="681" y="308" type="qcurve" smooth="yes"/>
      <point x="681" y="254"/>
      <point x="730" y="205"/>
      <point x="778" y="205" type="qcurve" smooth="yes"/>
      <point x="803" y="205"/>
      <point x="849" y="212"/>
      <point x="873.5" y="219.5" type="qcurve" smooth="yes"/>
      <point x="898" y="227"/>
      <point x="950" y="250"/>
      <point x="981" y="267" type="qcurve" smooth="yes"/>
      <point x="1019" y="287"/>
      <point x="1067" y="253"/>
      <point x="1090" y="204" type="qcurve" smooth="yes"/>
      <point x="1100" y="182"/>
      <point x="1112" y="145"/>
      <point x="1110.5" y="129.0" type="qcurve" smooth="yes"/>
      <point x="1109" y="113"/>
      <point x="1090" y="86"/>
      <point x="1070" y="74" type="qcurve" smooth="yes"/>
      <point x="1022" y="47"/>
      <point x="938" y="10"/>
      <point x="898.0" y="-1.0" type="qcurve" smooth="yes"/>
      <point x="858" y="-12"/>
      <point x="779" y="-22"/>
      <point x="736" y="-22" type="qcurve" smooth="yes"/>
      <point x="589" y="-22"/>
      <point x="429" y="132"/>
      <point x="429" y="272" type="qcurve" smooth="yes"/>
      <point x="429.0" y="294.5"/>
      <point x="433.5" y="342.5"/>
      <point x="438" y="368" type="qcurve" smooth="yes"/>
      <point x="499" y="719" type="line"/>
    </contour>
  </outline>
</glyph>
<glyph name="oe" format="2">
  <advance width="1228"/>
  <unicode hex="0153"/>
  <outline>
    <contour>
      <point x="440" y="719" type="qcurve" smooth="yes"/>
      <point x="407.0" y="719.0"/>
      <point x="354.0" y="684.5"/>
      <point x="334" y="650" type="qcurve" smooth="yes"/>
      <point x="318" y="624"/>
      <point x="292" y="543"/>
      <point x="282.5" y="498.0" type="qcurve" smooth="yes"/>
      <point x="273" y="453"/>
      <point x="262" y="364"/>
      <point x="262" y="330" type="qcurve" smooth="yes"/>
      <point x="262.0" y="267.5"/>
      <point x="306.0" y="205.0"/>
      <point x="350" y="205" type="qcurve" smooth="yes"/>
      <point x="381.0" y="205.0"/>
      <point x="431.0" y="234.5"/>
      <point x="450" y="264" type="qcurve" smooth="yes"/>
      <point x="467" y="290"/>
      <point x="496" y="374"/>
      <point x="506.5" y="421.0" type="qcurve" smooth="yes"/>
      <point x="517" y="468"/>
      <point x="528" y="560"/>
      <point x="528" y="594" type="qcurve" smooth="yes"/>
      <point x="528.0" y="656.5"/>
      <point x="484.0" y="719.0"/>
    </contour>
    <contour>
      <point x="677" y="836" type="qcurve"/>
      <point x="736.5" y="891.0"/>
      <point x="865.0" y="946.0"/>
      <point x="934" y="946" type="qcurve" smooth="yes"/>
      <point x="1010" y="946"/>
      <point x="1118" y="898"/>
      <point x="1152.0" y="854.5" type="qcurve" smooth="yes"/>
      <point x="1186" y="811"/>
      <point x="1217" y="689"/>
      <point x="1217" y="614" type="qcurve" smooth="yes"/>
      <point x="1217" y="572"/>
      <point x="1207" y="481"/>
      <point x="1199" y="432" type="qcurve" smooth="yes"/>
      <point x="1193" y="398"/>
      <point x="1159" y="370"/>
      <point x="1125" y="370" type="qcurve" smooth="yes"/>
      <point x="719" y="370" type="line"/>
      <point x="715" y="289"/>
      <point x="767" y="205"/>
      <point x="824" y="205" type="qcurve" smooth="yes"/>
      <point x="880" y="205"/>
      <point x="980" y="232"/>
      <point x="1040" y="255" type="qcurve" smooth="yes"/>
      <point x="1057" y="262"/>
      <point x="1084" y="262"/>
      <point x="1095.0" y="253.5" type="qcurve" smooth="yes"/>
      <point x="1106" y="245"/>
      <point x="1124" y="209"/>
      <point x="1132" y="179" type="qcurve" smooth="yes"/>
      <point x="1140" y="149"/>
      <point x="1144" y="106"/>
      <point x="1139.5" y="91.0" type="qcurve" smooth="yes"/>
      <point x="1135" y="76"/>
      <point x="1112" y="56"/>
      <point x="1093" y="49" type="qcurve" smooth="yes"/>
      <point x="1020" y="20"/>
      <point x="870" y="-22"/>
      <point x="789" y="-22" type="qcurve" smooth="yes"/>
      <point x="713" y="-22"/>
      <point x="611" y="33"/>
      <point x="580" y="84" type="qcurve"/>
      <point x="532" y="33"/>
      <point x="408" y="-22"/>
      <point x="330" y="-22" type="qcurve" smooth="yes"/>
      <point x="251" y="-22"/>
      <point x="137" y="31"/>
      <point x="100.0" y="78.0" type="qcurve" smooth="yes"/>
      <point x="63" y="125"/>
      <point x="28" y="256"/>
      <point x="28" y="333" type="qcurve" smooth="yes"/>
      <point x="28" y="391"/>
      <point x="48" y="527"/>
      <point x="67.5" y="594.0" type="qcurve" smooth="yes"/>
      <point x="87" y="661"/>
      <point x="146" y="783"/>
      <point x="185" y="827" type="qcurve" smooth="yes"/>
      <point x="236" y="884"/>
      <point x="371" y="946"/>
      <point x="460" y="946" type="qcurve" smooth="yes"/>
      <point x="538" y="946"/>
      <point x="647" y="887"/>
    </contour>
    <contour>
      <point x="997" y="565" type="line"/>
      <point x="1005" y="637"/>
      <point x="965" y="719"/>
      <point x="914" y="719" type="qcurve" smooth="yes"/>
      <point x="853" y="719"/>
      <point x="777" y="643"/>
      <point x="753" y="565" type="qcurve"/>
    </contour>
  </outline>
</glyph>
<glyph name="scedilla" format="2">
  <advance width="1228"/>
  <unicode hex="015F"/>
  <outline>
    <contour>
      <point x="351" y="41" type="line" smooth="yes"/>
      <point x="346" y="7"/>
      <point x="282" y="-22"/>
      <point x="218" y="-22" type="qcurve" smooth="yes"/>
      <point x="154" y="-22"/>
      <point x="105" y="7"/>
      <point x="111" y="41" type="qcurve" smooth="yes"/>
      <point x="150" y="264" type="line" smooth="yes"/>
      <point x="156" y="298"/>
      <point x="208" y="327"/>
      <point x="257" y="327" type="qcurve" smooth="yes"/>
      <point x="290" y="327"/>
      <point x="327" y="313"/>
      <point x="335" y="299" type="qcurve" smooth="yes"/>
      <point x="356" y="266"/>
      <point x="416" y="219"/>
      <point x="452.0" y="205.0" type="qcurve" smooth="yes"/>
      <point x="488" y="191"/>
      <point x="570" y="178"/>
      <point x="613" y="178" type="qcurve" smooth="yes"/>
      <point x="665" y="178"/>
      <point x="736" y="195"/>
      <point x="757" y="211" type="qcurve" smooth="yes"/>
      <point x="775" y="225"/>
      <point x="789" y="258"/>
      <point x="789" y="269" type="qcurve" smooth="yes"/>
      <point x="789" y="291"/>
      <point x="750" y="318"/>
      <point x="716" y="328" type="qcurve" smooth="yes"/>
      <point x="678" y="338"/>
      <point x="577" y="354"/>
      <point x="522.5" y="364.0" type="qcurve" smooth="yes"/>
      <point x="468" y="374"/>
      <point x="361" y="405"/>
      <point x="317" y="431" type="qcurve" smooth="yes"/>
      <point x="269" y="460"/>
      <point x="208" y="551"/>
      <point x="208" y="620" type="qcurve" smooth="yes"/>
      <point x="208" y="686"/>
      <point x="261" y="809"/>
      <point x="315" y="854" type="qcurve" smooth="yes"/>
      <point x="372" y="901"/>
      <point x="530" y="946"/>
      <point x="622" y="946" type="qcurve" smooth="yes"/>
      <point x="703" y="946"/>
      <point x="827" y="903"/>
      <point x="876" y="868" type="qcurve"/>
      <point x="879" y="883" type="line" smooth="yes"/>
      <point x="886" y="917"/>
      <point x="938" y="946"/>
      <point x="1002" y="946" type="qcurve" smooth="yes"/>
      <point x="1066" y="946"/>
      <point x="1115" y="917"/>
      <point x="1109" y="883" type="qcurve" smooth="yes"/>
      <point x="1072" y="672" type="line" smooth="yes"/>
      <point x="1066" y="638"/>
      <point x="1018" y="609"/>
      <point x="969" y="609" type="qcurve" smooth="yes"/>
      <point x="942.0" y="609.0"/>
      <point x="907.5" y="619.5"/>
      <point x="900" y="630" type="qcurve" smooth="yes"/>
      <point x="850" y="695"/>
      <point x="704" y="746"/>
      <point x="609" y="746" type="qcurve" smooth="yes"/>
      <point x="571" y="746"/>
      <point x="516" y="729"/>
      <point x="498" y="715" type="qcurve" smooth="yes"/>
      <point x="483.0" y="703.0"/>
      <point x="468.0" y="675.5"/>
      <point x="468" y="660" type="qcurve" smooth="yes"/>
      <point x="468" y="639"/>
      <point x="507" y="614"/>
      <point x="539" y="605" type="qcurve" smooth="yes"/>
      <point x="576" y="595"/>
      <point x="679" y="581"/>
      <point x="734.0" y="572.0" type="qcurve" smooth="yes"/>
      <point x="789" y="563"/>
      <point x="898" y="534"/>
      <point x="942" y="509" type="qcurve" smooth="yes"/>
      <point x="990" y="481"/>
      <point x="1051" y="394"/>
      <point x="1051" y="325" type="qcurve" smooth="yes"/>
      <point x="1051" y="262"/>
      <point x="1005" y="138"/>
      <point x="956" y="91" type="qcurve" smooth="yes"/>
      <point x="905" y="42"/>
      <point x="756" y="-13"/>
      <point x="659" y="-20" type="qcurve"/>
      <point x="647" y="-93" type="line"/>
      <point x="696" y="-92"/>
      <point x="770" y="-114"/>
      <point x="794.0" y="-135.0" type="qcurve" smooth="yes"/>
      <point x="818" y="-156"/>
      <point x="842" y="-215"/>
      <point x="842" y="-250" type="qcurve" smooth="yes"/>
      <point x="842" y="-282"/>
      <point x="820" y="-360"/>
      <point x="794" y="-389" type="qcurve" smooth="yes"/>
      <point x="758.5" y="-430.5"/>
      <point x="630.0" y="-472.0"/>
      <point x="537" y="-472" type="qcurve" smooth="yes"/>
      <point x="465" y="-472"/>
      <point x="338" y="-451"/>
      <point x="289" y="-431" type="qcurve" smooth="yes"/>
      <point x="269" y="-423"/>
      <point x="271" y="-376"/>
      <point x="285" y="-346" type="qcurve" smooth="yes"/>
      <point x="298" y="-317"/>
      <point x="334" y="-280"/>
      <point x="354" y="-288" type="qcurve" smooth="yes"/>
      <point x="390" y="-303"/>
      <point x="461" y="-322"/>
      <point x="511" y="-322" type="qcurve" smooth="yes"/>
      <point x="567" y="-322"/>
      <point x="607" y="-283"/>
      <point x="607" y="-258" type="qcurve" smooth="yes"/>
      <point x="607" y="-226"/>
      <point x="539" y="-212"/>
      <point x="489" y="-221" type="qcurve" smooth="yes"/>
      <point x="475" y="-223"/>
      <point x="452" y="-206"/>
      <point x="457" y="-180" type="qcurve" smooth="yes"/>
      <point x="487" y="-8" type="line"/>
      <point x="449" y="2"/>
      <point x="382" y="34"/>
      <point x="353" y="54" type="qcurve"/>
    </contour>
  </outline>
</glyph>
<glyph name="uogonek" format="2">
  <advance width="1228"/>
  <unicode hex="0173"/>
  <outline>
    <contour>
      <point x="788" y="208" type="line"/>
      <point x="700" y="86"/>
      <point x="522" y="-22"/>
      <point x="428" y="-22" type="qcurve" smooth="yes"/>
      <point x="368" y="-22"/>
      <point x="272" y="18"/>
      <point x="239.0" y="53.5" type="qcurve" smooth="yes"/>
      <point x="206" y="89"/>
      <point x="170" y="189"/>
      <point x="170" y="249" type="qcurve" smooth="yes"/>
      <point x="170" y="267"/>
      <point x="173" y="304"/>
      <point x="177" y="324" type="qcurve" smooth="yes"/>
      <point x="246" y="719" type="line"/>
      <point x="169" y="719" type="line" smooth="yes"/>
      <point x="152" y="719"/>
      <point x="130" y="727"/>
      <point x="124.0" y="738.5" type="qcurve" smooth="yes"/>
      <point x="118" y="750"/>
      <point x="118" y="790"/>
      <point x="124" y="822" type="qcurve" smooth="yes"/>
      <point x="130" y="854"/>
      <point x="144" y="894"/>
      <point x="153.5" y="905.0" type="qcurve" smooth="yes"/>
      <point x="163" y="916"/>
      <point x="188" y="924"/>
      <point x="205" y="924" type="qcurve" smooth="yes"/>
      <point x="469" y="924" type="line" smooth="yes"/>
      <point x="503" y="924"/>
      <point x="527" y="895"/>
      <point x="521" y="861" type="qcurve" smooth="yes"/>
      <point x="434" y="363" type="line" smooth="yes"/>
      <point x="431.0" y="347.0"/>
      <point x="428.0" y="318.0"/>
      <point x="428" y="305" type="qcurve" smooth="yes"/>
      <point x="428" y="257"/>
      <point x="471" y="205"/>
      <point x="523" y="205" type="qcurve" smooth="yes"/>
      <point x="568" y="205"/>
      <point x="662" y="271"/>
      <point x="702.5" y="325.0" type="qcurve" smooth="yes"/>
      <point x="743" y="379"/>
      <point x="804" y="515"/>
      <point x="816" y="586" type="qcurve" smooth="yes"/>
      <point x="838" y="719" type="line"/>
      <point x="731" y="719" type="line" smooth="yes"/>
      <point x="714" y="719"/>
      <point x="692" y="727"/>
      <point x="686.0" y="738.5" type="qcurve" smooth="yes"/>
      <point x="680" y="750"/>
      <point x="680" y="790"/>
      <point x="686" y="822" type="qcurve" smooth="yes"/>
      <point x="692" y="854"/>
      <point x="706" y="894"/>
      <point x="715.5" y="905.0" type="qcurve" smooth="yes"/>
      <point x="725" y="916"/>
      <point x="750" y="924"/>
      <point x="767" y="924" type="qcurve" smooth="yes"/>
      <point x="1061" y="924" type="line" smooth="yes"/>
      <point x="1095" y="924"/>
      <point x="1119" y="895"/>
      <point x="1113" y="861" type="qcurve" smooth="yes"/>
      <point x="998" y="205" type="line"/>
      <point x="1075" y="205" type="line" smooth="yes"/>
      <point x="1092" y="205"/>
      <point x="1114" y="197"/>
      <point x="1120.0" y="186.0" type="qcurve" smooth="yes"/>
      <point x="1126" y="175"/>
      <point x="1126" y="135"/>
      <point x="1120" y="103" type="qcurve" smooth="yes"/>
      <point x="1114" y="71"/>
      <point x="1100" y="31"/>
      <point x="1090.5" y="19.5" type="qcurve" smooth="yes"/>
      <point x="1081" y="8"/>
      <point x="1056" y="0"/>
      <point x="1039" y="0" type="qcurve" smooth="yes"/>
      <point x="1030" y="0" type="line"/>
      <point x="987" y="-32"/>
      <point x="913" y="-94"/>
      <point x="886.0" y="-123.5" type="qcurve" smooth="yes"/>
      <point x="859" y="-153"/>
      <point x="829" y="-209"/>
      <point x="829" y="-235" type="qcurve" smooth="yes"/>
      <point x="829" y="-269"/>
      <point x="870" y="-298"/>
      <point x="907" y="-298" type="qcurve" smooth="yes"/>
      <point x="936" y="-298"/>
      <point x="996" y="-290"/>
      <point x="1026" y="-285" type="qcurve" smooth="yes"/>
      <point x="1047.5" y="-281.0"/>
      <point x="1073.5" y="-313.5"/>
      <point x="1078" y="-350" type="qcurve" smooth="yes"/>
      <point x="1083" y="-388"/>
      <point x="1061" y="-429"/>
      <point x="1038" y="-436" type="qcurve" smooth="yes"/>
      <point x="988" y="-452"/>
      <point x="861" y="-472"/>
      <point x="801" y="-472" type="qcurve" smooth="yes"/>
      <point x="696" y="-472"/>
      <point x="579" y="-381"/>
      <point x="579" y="-300" type="qcurve" smooth="yes"/>
      <point x="579" y="-252"/>
      <point x="614" y="-168"/>
      <point x="645.5" y="-131.0" type="qcurve" smooth="yes"/>
      <point x="677" y="-94"/>
      <point x="761" y="-29"/>
      <point x="811" y="0" type="qcurve"/>
      <point x="779" y="1"/>
      <point x="757" y="30"/>
      <point x="763" y="63" type="qcurve" smooth="yes"/>
    </contour>
  </outline>
</glyph>
<glyph name="florin" format="2">
  <advance width="1228"/>
  <unicode hex="0192"/>
  <outline>
    <contour>
      <point x="314" y="649" type="line" smooth="yes"/>
      <point x="297" y="649"/>
      <point x="275" y="659"/>
      <point x="269.5" y="671.0" type="qcurve" smooth="yes"/>
      <point x="264" y="683"/>
      <point x="264" y="724"/>
      <point x="270" y="756" type="qcurve" smooth="yes"/>
      <point x="276" y="788"/>
      <point x="290" y="830"/>
      <point x="299.5" y="842.0" type="qcurve" smooth="yes"/>
      <point x="309" y="854"/>
      <point x="335" y="864"/>
      <point x="352" y="864" type="qcurve" smooth="yes"/>
      <point x="569" y="864" type="line"/>
      <point x="593" y="957" type="line" smooth="yes"/>
      <point x="641" y="1143"/>
      <point x="863" y="1317"/>
      <point x="1037" y="1317" type="qcurve" smooth="yes"/>
      <point x="1093" y="1317"/>
      <point x="1203" y="1301"/>
      <point x="1255" y="1284" type="qcurve" smooth="yes"/>
      <point x="1271" y="1279"/>
      <point x="1292" y="1261"/>
      <point x="1296.5" y="1245.5" type="qcurve" smooth="yes"/>
      <point x="1301" y="1230"/>
      <point x="1296" y="1184"/>
      <point x="1285" y="1151" type="qcurve" smooth="yes"/>
      <point x="1274" y="1119"/>
      <point x="1248" y="1081"/>
      <point x="1233.0" y="1072.5" type="qcurve" smooth="yes"/>
      <point x="1218" y="1064"/>
      <point x="1186" y="1063"/>
      <point x="1171" y="1067" type="qcurve" smooth="yes"/>
      <point x="1127" y="1079"/>
      <point x="1047" y="1090"/>
      <point x="1009" y="1090" type="qcurve" smooth="yes"/>
      <point x="947" y="1090"/>
      <point x="858" y="1011"/>
      <point x="835" y="924" type="qcurve" smooth="yes"/>
      <point x="819" y="864" type="line"/>
      <point x="1056" y="864" type="line" smooth="yes"/>
      <point x="1073" y="864"/>
      <point x="1095" y="854"/>
      <point x="1100.5" y="842.0" type="qcurve" smooth="yes"/>
      <point x="1106" y="830"/>
      <point x="1106" y="788"/>
      <point x="1100" y="756" type="qcurve" smooth="yes"/>
      <point x="1094" y="724"/>
      <point x="1080" y="683"/>
      <point x="1070.0" y="671.0" type="qcurve" smooth="yes"/>
      <point x="1060" y="659"/>
      <point x="1035" y="649"/>
      <point x="1018" y="649" type="qcurve" smooth="yes"/>
      <point x="762" y="649" type="line"/>
      <point x="613" y="81" type="line" smooth="yes"/>
      <point x="564" y="-106"/>
      <point x="343" y="-279"/>
      <point x="169" y="-279" type="qcurve" smooth="yes"/>
      <point x="113" y="-279"/>
      <point x="3" y="-263"/>
      <point x="-49" y="-246" type="qcurve" smooth="yes"/>
      <point x="-64" y="-241"/>
      <point x="-85" y="-223"/>
      <point x="-89.0" y="-208.0" type="qcurve" smooth="yes"/>
      <point x="-93" y="-193"/>
      <point x="-88" y="-147"/>
      <point x="-78" y="-113" type="qcurve" smooth="yes"/>
      <point x="-68" y="-81"/>
      <point x="-42" y="-43"/>
      <point x="-27.0" y="-34.5" type="qcurve" smooth="yes"/>
      <point x="-12" y="-26"/>
      <point x="20" y="-25"/>
      <point x="35" y="-29" type="qcurve" smooth="yes"/>
      <point x="79" y="-41"/>
      <point x="159" y="-52"/>
      <point x="197" y="-52" type="qcurve" smooth="yes"/>
      <point x="259" y="-52"/>
      <point x="348" y="27"/>
      <point x="371" y="114" type="qcurve" smooth="yes"/>
      <point x="512" y="649" type="line"/>
    </contour>
  </outline>
</glyph>
<glyph name="dotlessj" format="2">
  <advance width="1228"/>
  <unicode hex="0237"/>
  <outline>
    <contour>
      <point x="96" y="-315" type="qcurve" smooth="yes"/>
      <point x="66" y="-299"/>
      <point x="55" y="-237"/>
      <point x="87" y="-178" type="qcurve" smooth="yes"/>
      <point x="103" y="-148"/>
      <point x="132" y="-115"/>
      <point x="146.5" y="-108.0" type="qcurve" smooth="yes"/>
      <point x="161" y="-101"/>
      <point x="189" y="-103"/>
      <point x="203" y="-110" type="qcurve" smooth="yes"/>
      <point x="233" y="-125"/>
      <point x="296" y="-153"/>
      <point x="326.5" y="-164.0" type="qcurve" smooth="yes"/>
      <point x="357" y="-175"/>
      <point x="414" y="-188"/>
      <point x="440" y="-188" type="qcurve" smooth="yes"/>
      <point x="502" y="-188"/>
      <point x="583" y="-109"/>
      <point x="599" y="-22" type="qcurve" smooth="yes"/>
      <point x="729" y="719" type="line"/>
      <point x="346" y="719" type="line" smooth="yes"/>
      <point x="329" y="719"/>
      <point x="307" y="727"/>
      <point x="301.0" y="738.0" type="qcurve" smooth="yes"/>
      <point x="295" y="749"/>
      <point x="295" y="789"/>
      <point x="301" y="821" type="qcurve" smooth="yes"/>
      <point x="307" y="853"/>
      <point x="321" y="893"/>
      <point x="330.5" y="904.5" type="qcurve" smooth="yes"/>
      <point x="340" y="916"/>
      <point x="365" y="924"/>
      <point x="382" y="924" type="qcurve" smooth="yes"/>
      <point x="952" y="924" type="line" smooth="yes"/>
      <point x="986" y="924"/>
      <point x="1010" y="895"/>
      <point x="1004" y="861" type="qcurve" smooth="yes"/>
      <point x="844" y="-45" type="line" smooth="yes"/>
      <point x="811" y="-232"/>
      <point x="616" y="-415"/>
      <point x="442" y="-415" type="qcurve" smooth="yes"/>
      <point x="355" y="-415"/>
      <point x="179" y="-361"/>
    </contour>
  </outline>
</glyph>
<glyph name="caron" format="2">
  <advance width="1228"/>
  <unicode hex="02C7"/>
  <outline>
    <contour>
      <point x="1056" y="1384" type="line" smooth="yes"/>
      <point x="1075.5" y="1392.5"/>
      <point x="1107.5" y="1377.5"/>
      <point x="1120" y="1354" type="qcurve" smooth="yes"/>
      <point x="1131" y="1334"/>
      <point x="1130" y="1301"/>
      <point x="1112" y="1286" type="qcurve" smooth="yes"/>
      <point x="789" y="1025" type="line" smooth="yes"/>
      <point x="777.0" y="1016.0"/>
      <point x="748.0" y="1007.0"/>
      <point x="731" y="1007" type="qcurve" smooth="yes"/>
      <point x="714.0" y="1007.0"/>
      <point x="688.0" y="1016.0"/>
      <point x="679" y="1025" type="qcurve" smooth="yes"/>
      <point x="428" y="1286" type="line" smooth="yes"/>
      <point x="413.5" y="1301.5"/>
      <point x="412.5" y="1337.5"/>
      <point x="426" y="1358" type="qcurve" smooth="yes"/>
      <point x="439" y="1378"/>
      <point x="475" y="1396"/>
      <point x="498" y="1384" type="qcurve" smooth="yes"/>
      <point x="753" y="1250" type="line"/>
    </contour>
  </outline>
</glyph>
<glyph name="quoteright" format="2">
  <advance width="1228"/>
  <unicode hex="2019"/>
  <outline>
    <contour>
      <point x="648" y="672" type="line" smooth="yes"/>
      <point x="625" y="639"/>
      <point x="573" y="611"/>
      <point x="531" y="611" type="qcurve" smooth="yes"/>
      <point x="481" y="611"/>
      <point x="449" y="650"/>
      <point x="466" y="697" type="qcurve" smooth="yes"/>
      <point x="634" y="1169" type="line" smooth="yes"/>
      <point x="641" y="1189"/>
      <point x="672" y="1209"/>
      <point x="693" y="1209" type="qcurve" smooth="yes"/>
      <point x="952" y="1209" type="line" smooth="yes"/>
      <point x="977" y="1209"/>
      <point x="986" y="1172"/>
      <point x="969" y="1146" type="qcurve" smooth="yes"/>
    </contour>
  </outline>
</glyph>
<glyph name="bullet" format="2">
  <advance width="1228"/>
  <unicode hex="2022"/>
  <outline>
    <contour>
      <point x="604" y="285" type="qcurve" smooth="yes"/>
      <point x="550" y="285"/>
      <point x="456" y="325"/>
      <point x="422.0" y="359.5" type="qcurve" smooth="yes"/>
      <point x="388" y="394"/>
      <point x="349" y="487"/>
      <point x="349" y="540" type="qcurve" smooth="yes"/>
      <point x="349" y="604"/>
      <point x="402" y="724"/>
      <point x="447.5" y="770.5" type="qcurve" smooth="yes"/>
      <point x="493" y="817"/>
      <point x="616" y="873"/>
      <point x="687" y="873" type="qcurve" smooth="yes"/>
      <point x="742" y="873"/>
      <point x="835" y="833"/>
      <point x="869.0" y="798.0" type="qcurve" smooth="yes"/>
      <point x="903" y="763"/>
      <point x="942" y="670"/>
      <point x="942" y="617" type="qcurve" smooth="yes"/>
      <point x="942" y="555"/>
      <point x="891" y="436"/>
      <point x="845.5" y="389.0" type="qcurve" smooth="yes"/>
      <point x="800" y="342"/>
      <point x="676" y="285"/>
    </contour>
  </outline>
</glyph>
<glyph name="guilsinglright" format="2">
  <advance width="1228"/>
  <unicode hex="203A"/>
  <outline>
    <contour>
      <point x="495" y="835" type="line" smooth="yes"/>
      <point x="489" y="849"/>
      <point x="499" y="877"/>
      <point x="511.5" y="889.5" type="qcurve" smooth="yes"/>
      <point x="524" y="902"/>
      <point x="560" y="923"/>
      <point x="581" y="931" type="qcurve" smooth="yes"/>
      <point x="602" y="938"/>
      <point x="645" y="946"/>
      <point x="664.0" y="944.5" type="qcurve" smooth="yes"/>
      <point x="683" y="943"/>
      <point x="711" y="929"/>
      <point x="717" y="915" type="qcurve" smooth="yes"/>
      <point x="865" y="571" type="line" smooth="yes"/>
      <point x="870.5" y="558.0"/>
      <point x="866.0" y="532.5"/>
      <point x="856" y="520" type="qcurve" smooth="yes"/>
      <point x="586" y="176" type="line" smooth="yes"/>
      <point x="575" y="162"/>
      <point x="544" y="152"/>
      <point x="525.5" y="153.0" type="qcurve" smooth="yes"/>
      <point x="507" y="154"/>
      <point x="469" y="168"/>
      <point x="451" y="179" type="qcurve" smooth="yes"/>
      <point x="433" y="190"/>
      <point x="405" y="219"/>
      <point x="397.0" y="234.5" type="qcurve" smooth="yes"/>
      <point x="389" y="250"/>
      <point x="389" y="282"/>
      <point x="400" y="296" type="qcurve" smooth="yes"/>
      <point x="611" y="565" type="line"/>
    </contour>
  </outline>
</glyph>
<glyph name="foursuperior" format="2">
  <advance width="1228"/>
  <unicode hex="2074"/>
  <outline>
    <contour>
      <point x="793" y="1084" type="line"/>
      <point x="555" y="833" type="line"/>
      <point x="732" y="833" type="line"/>
    </contour>
    <contour>
      <point x="898" y="665" type="line"/>
      <point x="873" y="523" type="line" smooth="yes"/>
      <point x="868" y="500"/>
      <point x="830" y="475"/>
      <point x="777" y="475" type="qcurve" smooth="yes"/>
      <point x="718" y="475"/>
      <point x="673" y="500"/>
      <point x="678" y="523" type="qcurve" smooth="yes"/>
      <point x="703" y="665" type="line"/>
      <point x="359" y="665" type="line" smooth="yes"/>
      <point x="347" y="665"/>
      <point x="326" y="684"/>
      <point x="318.5" y="699.5" type="qcurve" smooth="yes"/>
      <point x="311" y="715"/>
      <point x="303" y="754"/>
      <point x="303" y="775" type="qcurve" smooth="yes"/>
      <point x="303" y="794"/>
      <point x="317" y="823"/>
      <point x="332" y="838" type="qcurve" smooth="yes"/>
      <point x="782" y="1291" type="line" smooth="yes"/>
      <point x="802.0" y="1312.5"/>
      <point x="864.5" y="1334.0"/>
      <point x="907" y="1334" type="qcurve" smooth="yes"/>
      <point x="961" y="1334"/>
      <point x="1011" y="1304"/>
      <point x="1006" y="1280" type="qcurve" smooth="yes"/>
      <point x="927" y="833" type="line"/>
      <point x="1016" y="833" type="line" smooth="yes"/>
      <point x="1044" y="833"/>
      <point x="1060" y="793"/>
      <point x="1053" y="749" type="qcurve" smooth="yes"/>
      <point x="1045" y="704"/>
      <point x="1014" y="665"/>
      <point x="986" y="665" type="qcurve" smooth="yes"/>
    </contour>
  </outline>
</glyph>
<glyph name="Euro" format="2">
  <advance width="1228"/>
  <unicode hex="20AC"/>
  <outline>
    <contour>
      <point x="279" y="850" type="line"/>
      <point x="354" y="1025"/>
      <point x="604" y="1209"/>
      <point x="767" y="1209" type="qcurve" smooth="yes"/>
      <point x="855" y="1209"/>
      <point x="975" y="1137"/>
      <point x="1004" y="1079" type="qcurve"/>
      <point x="1016" y="1146" type="line" smooth="yes"/>
      <point x="1022" y="1180"/>
      <point x="1085" y="1209"/>
      <point x="1149" y="1209" type="qcurve" smooth="yes"/>
      <point x="1213" y="1209"/>
      <point x="1252" y="1180"/>
      <point x="1246" y="1146" type="qcurve" smooth="yes"/>
      <point x="1178" y="762" type="line" smooth="yes"/>
      <point x="1172" y="728"/>
      <point x="1107" y="699"/>
      <point x="1035" y="699" type="qcurve" smooth="yes"/>
      <point x="999" y="699"/>
      <point x="955" y="706"/>
      <point x="943.0" y="713.5" type="qcurve" smooth="yes"/>
      <point x="931" y="721"/>
      <point x="925" y="745"/>
      <point x="928" y="762" type="qcurve" smooth="yes"/>
      <point x="937" y="810"/>
      <point x="924" y="891"/>
      <point x="904.0" y="920.5" type="qcurve" smooth="yes"/>
      <point x="884" y="950"/>
      <point x="815" y="982"/>
      <point x="767" y="982" type="qcurve" smooth="yes"/>
      <point x="695" y="982"/>
      <point x="592" y="915"/>
      <point x="555" y="850" type="qcurve"/>
      <point x="744" y="850" type="line" smooth="yes"/>
      <point x="778" y="850"/>
      <point x="801" y="813"/>
      <point x="791" y="757" type="qcurve" smooth="yes"/>
      <point x="786" y="729"/>
      <point x="773" y="693"/>
      <point x="763.5" y="683.0" type="qcurve" smooth="yes"/>
      <point x="754" y="673"/>
      <point x="729" y="665"/>
      <point x="712" y="665" type="qcurve" smooth="yes"/>
      <point x="489" y="665" type="line"/>
      <point x="481" y="630"/>
      <point x="469" y="559"/>
      <point x="464" y="522" type="qcurve"/>
      <point x="687" y="522" type="line" smooth="yes"/>
      <point x="721" y="522"/>
      <point x="743" y="485"/>
      <point x="733" y="429" type="qcurve" smooth="yes"/>
      <point x="728" y="401"/>
      <point x="715" y="365"/>
      <point x="705.5" y="355.0" type="qcurve" smooth="yes"/>
      <point x="696" y="345"/>
      <point x="671" y="337"/>
      <point x="654" y="337" type="qcurve" smooth="yes"/>
      <point x="469" y="337" type="line"/>
      <point x="485" y="272"/>
      <point x="568" y="205"/>
      <point x="640" y="205" type="qcurve" smooth="yes"/>
      <point x="725" y="205"/>
      <point x="888" y="258"/>
      <point x="983" y="303" type="qcurve" smooth="yes"/>
      <point x="1016" y="318"/>
      <point x="1065" y="283"/>
      <point x="1082" y="225" type="qcurve" smooth="yes"/>
      <point x="1100" y="165"/>
      <point x="1080" y="100"/>
      <point x="1045" y="84" type="qcurve" smooth="yes"/>
      <point x="931" y="32"/>
      <point x="710" y="-22"/>
      <point x="610" y="-22" type="qcurve" smooth="yes"/>
      <point x="525" y="-22"/>
      <point x="387" y="28"/>
      <point x="335.0" y="74.5" type="qcurve" smooth="yes"/>
      <point x="283" y="121"/>
      <point x="217" y="254"/>
      <point x="204" y="337" type="qcurve"/>
      <point x="102" y="337" type="line" smooth="yes"/>
      <point x="68" y="337"/>
      <point x="45" y="373"/>
      <point x="55" y="429" type="qcurve" smooth="yes"/>
      <point x="65" y="485"/>
      <point x="101" y="522"/>
      <point x="135" y="522" type="qcurve" smooth="yes"/>
      <point x="199" y="522" type="line"/>
      <point x="202" y="557"/>
      <point x="213" y="628"/>
      <point x="221" y="665" type="qcurve"/>
      <point x="160" y="665" type="line" smooth="yes"/>
      <point x="126" y="665"/>
      <point x="103" y="701"/>
      <point x="113" y="757" type="qcurve" smooth="yes"/>
      <point x="118" y="785"/>
      <point x="131" y="821"/>
      <point x="140.5" y="831.5" type="qcurve" smooth="yes"/>
      <point x="150" y="842"/>
      <point x="175" y="850"/>
      <point x="192" y="850" type="qcurve" smooth="yes"/>
    </contour>
  </outline>
</glyph>
<glyph name="approxequal" format="2">
  <advance width="1228"/>
  <unicode hex="2248"/>
  <outline>
    <contour>
      <point x="1142" y="761" type="qcurve" smooth="yes"/>
      <point x="1102" y="730"/>
      <point x="1029" y="688"/>
      <point x="995.0" y="675.5" type="qcurve" smooth="yes"/>
      <point x="961" y="663"/>
      <point x="898" y="652"/>
      <point x="868" y="652" type="qcurve" smooth="yes"/>
      <point x="815" y="652"/>
      <point x="718" y="678"/>
      <point x="670.0" y="693.5" type="qcurve" smooth="yes"/>
      <point x="622" y="709"/>
      <point x="525" y="735"/>
      <point x="473" y="735" type="qcurve" smooth="yes"/>
      <point x="433" y="735"/>
      <point x="348" y="715"/>
      <point x="300" y="690" type="qcurve" smooth="yes"/>
      <point x="283" y="681"/>
      <point x="254" y="686"/>
      <point x="243.0" y="696.0" type="qcurve" smooth="yes"/>
      <point x="232" y="706"/>
      <point x="216" y="739"/>
      <point x="212" y="757" type="qcurve" smooth="yes"/>
      <point x="205" y="787"/>
      <point x="215" y="847"/>
      <point x="232" y="861" type="qcurve" smooth="yes"/>
      <point x="311" y="923"/>
      <point x="447" y="970"/>
      <point x="507" y="970" type="qcurve" smooth="yes"/>
      <point x="560" y="970"/>
      <point x="658" y="944"/>
      <point x="706.0" y="929.0" type="qcurve" smooth="yes"/>
      <point x="754" y="914"/>
      <point x="851" y="888"/>
      <point x="903" y="888" type="qcurve" smooth="yes"/>
      <point x="943" y="888"/>
      <point x="1027" y="908"/>
      <point x="1074" y="932" type="qcurve" smooth="yes"/>
      <point x="1090" y="940"/>
      <point x="1118" y="937"/>
      <point x="1129.0" y="928.0" type="qcurve" smooth="yes"/>
      <point x="1140" y="919"/>
      <point x="1155" y="890"/>
      <point x="1160" y="873" type="qcurve" smooth="yes"/>
      <point x="1168" y="841"/>
      <point x="1161" y="776"/>
    </contour>
    <contour>
      <point x="1060" y="301" type="qcurve" smooth="yes"/>
      <point x="1020" y="270"/>
      <point x="947" y="228"/>
      <point x="913.0" y="215.5" type="qcurve" smooth="yes"/>
      <point x="879" y="203"/>
      <point x="816" y="192"/>
      <point x="786" y="192" type="qcurve" smooth="yes"/>
      <point x="733" y="192"/>
      <point x="636" y="218"/>
      <point x="588.0" y="233.5" type="qcurve" smooth="yes"/>
      <point x="540" y="249"/>
      <point x="443" y="275"/>
      <point x="391" y="275" type="qcurve" smooth="yes"/>
      <point x="351" y="275"/>
      <point x="266" y="255"/>
      <point x="218" y="230" type="qcurve" smooth="yes"/>
      <point x="201" y="221"/>
      <point x="172" y="226"/>
      <point x="161.0" y="236.0" type="qcurve" smooth="yes"/>
      <point x="150" y="246"/>
      <point x="134" y="279"/>
      <point x="130" y="297" type="qcurve" smooth="yes"/>
      <point x="123" y="327"/>
      <point x="133" y="387"/>
      <point x="150" y="401" type="qcurve" smooth="yes"/>
      <point x="229" y="463"/>
      <point x="365" y="510"/>
      <point x="425" y="510" type="qcurve" smooth="yes"/>
      <point x="478" y="510"/>
      <point x="576" y="484"/>
      <point x="624.0" y="469.0" type="qcurve" smooth="yes"/>
      <point x="672" y="454"/>
      <point x="769" y="428"/>
      <point x="821" y="428" type="qcurve" smooth="yes"/>
      <point x="861" y="428"/>
      <point x="945" y="448"/>
      <point x="992" y="472" type="qcurve" smooth="yes"/>
      <point x="1008" y="480"/>
      <point x="1036" y="477"/>
      <point x="1047.0" y="468.0" type="qcurve" smooth="yes"/>
      <point x="1058" y="459"/>
      <point x="1073" y="430"/>
      <point x="1078" y="413" type="qcurve" smooth="yes"/>
      <point x="1086" y="381"/>
      <point x="1079" y="316"/>
    </contour>
  </outline>
</glyph>
<glyph name="notequal" format="2">
  <advance width="1228"/>
  <unicode hex="2260"/>
  <outline>
    <contour>
      <point x="775" y="924" type="line"/>
      <point x="887" y="1083" type="line" smooth="yes"/>
      <point x="909" y="1114"/>
      <point x="967" y="1121"/>
      <point x="1012" y="1095" type="qcurve" smooth="yes"/>
      <point x="1056" y="1068"/>
      <point x="1067" y="1025"/>
      <point x="1046" y="995" type="qcurve" smooth="yes"/>
      <point x="996" y="924" type="line"/>
      <point x="1087" y="924" type="line" smooth="yes"/>
      <point x="1104" y="924"/>
      <point x="1126" y="915"/>
      <point x="1131.5" y="903.0" type="qcurve" smooth="yes"/>
      <point x="1137" y="891"/>
      <point x="1137" y="847"/>
      <point x="1131" y="811" type="qcurve" smooth="yes"/>
      <point x="1125" y="775"/>
      <point x="1110" y="731"/>
      <point x="1100.0" y="719.0" type="qcurve" smooth="yes"/>
      <point x="1090" y="707"/>
      <point x="1065" y="699"/>
      <point x="1048" y="699" type="qcurve" smooth="yes"/>
      <point x="838" y="699" type="line"/>
      <point x="674" y="466" type="line"/>
      <point x="1007" y="466" type="line" smooth="yes"/>
      <point x="1024" y="466"/>
      <point x="1046" y="457"/>
      <point x="1051.5" y="445.0" type="qcurve" smooth="yes"/>
      <point x="1057" y="433"/>
      <point x="1056" y="389"/>
      <point x="1050" y="353" type="qcurve" smooth="yes"/>
      <point x="1044" y="317"/>
      <point x="1029" y="273"/>
      <point x="1019.0" y="261.0" type="qcurve" smooth="yes"/>
      <point x="1009" y="249"/>
      <point x="984" y="241"/>
      <point x="967" y="241" type="qcurve" smooth="yes"/>
      <point x="516" y="241" type="line"/>
      <point x="405" y="82" type="line" smooth="yes"/>
      <point x="384" y="52"/>
      <point x="327" y="44"/>
      <point x="281" y="70" type="qcurve" smooth="yes"/>
      <point x="236" y="96"/>
      <point x="225" y="140"/>
      <point x="246" y="169" type="qcurve" smooth="yes"/>
      <point x="296" y="241" type="line"/>
      <point x="205" y="241" type="line" smooth="yes"/>
      <point x="188" y="241"/>
      <point x="166" y="249"/>
      <point x="160.5" y="261.0" type="qcurve" smooth="yes"/>
      <point x="155" y="273"/>
      <point x="156" y="317"/>
      <point x="162" y="353" type="qcurve" smooth="yes"/>
      <point x="168" y="389"/>
      <point x="183" y="433"/>
      <point x="192.5" y="445.0" type="qcurve" smooth="yes"/>
      <point x="202" y="457"/>
      <point x="228" y="466"/>
      <point x="245" y="466" type="qcurve" smooth="yes"/>
      <point x="454" y="466" type="line"/>
      <point x="618" y="699" type="line"/>
      <point x="286" y="699" type="line" smooth="yes"/>
      <point x="269" y="699"/>
      <point x="247" y="707"/>
      <point x="241.5" y="719.0" type="qcurve" smooth="yes"/>
      <point x="236" y="731"/>
      <point x="237" y="775"/>
      <point x="243" y="811" type="qcurve" smooth="yes"/>
      <point x="249" y="847"/>
      <point x="263" y="891"/>
      <point x="273.0" y="903.0" type="qcurve" smooth="yes"/>
      <point x="283" y="915"/>
      <point x="308" y="924"/>
      <point x="325" y="924" type="qcurve" smooth="yes"/>
    </contour>
  </outline>
</glyph>
<glyph name="commaaccent" format="2">
  <advance width="1228"/>
  <unicode hex="F6C3"/>
  <outline>
    <contour>
      <point x="444" y="-502" type="line" smooth="yes"/>
      <point x="428" y="-525"/>
      <point x="377" y="-545"/>
      <point x="345" y="-545" type="qcurve" smooth="yes"/>
      <point x="311" y="-545"/>
      <point x="281" y="-519"/>
      <point x="290" y="-486" type="qcurve" smooth="yes"/>
      <point x="378" y="-173" type="line" smooth="yes"/>
      <point x="382" y="-160"/>
      <point x="405" y="-146"/>
      <point x="419" y="-146" type="qcurve" smooth="yes"/>
      <point x="641" y="-146" type="line" smooth="yes"/>
      <point x="658" y="-146"/>
      <point x="665" y="-171"/>
      <point x="653" y="-189" type="qcurve" smooth="yes"/>
    </contour>
  </outline>
</glyph>
<glyph name="fi" format="2">
  <advance width="1228"/>
  <unicode hex="FB01"/>
  <outline>
    <contour>
      <point x="-8" y="-415" type="qcurve" smooth="yes"/>
      <point x="-65" y="-415"/>
      <point x="-182" y="-393"/>
      <point x="-233" y="-368" type="qcurve" smooth="yes"/>
      <point x="-265" y="-352"/>
      <point x="-278" y="-295"/>
      <point x="-252" y="-234" type="qcurve" smooth="yes"/>
      <point x="-239" y="-203"/>
      <point x="-209" y="-168"/>
      <point x="-193.5" y="-161.0" type="qcurve" smooth="yes"/>
      <point x="-178" y="-154"/>
      <point x="-148" y="-156"/>
      <point x="-133" y="-162" type="qcurve" smooth="yes"/>
      <point x="-99.5" y="-175.0"/>
      <point x="-38.0" y="-188.0"/>
      <point x="-10" y="-188" type="qcurve" smooth="yes"/>
      <point x="48" y="-188"/>
      <point x="122" y="-115"/>
      <point x="137" y="-32" type="qcurve" smooth="yes"/>
      <point x="269" y="719" type="line"/>
      <point x="156" y="719" type="line" smooth="yes"/>
      <point x="139" y="719"/>
      <point x="117" y="727"/>
      <point x="111.0" y="738.0" type="qcurve" smooth="yes"/>
      <point x="105" y="749"/>
      <point x="105" y="789"/>
      <point x="111" y="821" type="qcurve" smooth="yes"/>
      <point x="117" y="853"/>
      <point x="131" y="893"/>
      <point x="140.5" y="904.5" type="qcurve" smooth="yes"/>
      <point x="150" y="916"/>
      <point x="175" y="924"/>
      <point x="192" y="924" type="qcurve" smooth="yes"/>
      <point x="305" y="924" type="line"/>
      <point x="311" y="957" type="line" smooth="yes"/>
      <point x="342" y="1129"/>
      <point x="538" y="1317"/>
      <point x="712" y="1317" type="qcurve" smooth="yes"/>
      <point x="783" y="1317"/>
      <point x="929" y="1291"/>
      <point x="1006" y="1260" type="qcurve" smooth="yes"/>
      <point x="1022" y="1254"/>
      <point x="1045" y="1234"/>
      <point x="1050.0" y="1218.5" type="qcurve" smooth="yes"/>
      <point x="1055" y="1203"/>
      <point x="1050" y="1158"/>
      <point x="1038" y="1127" type="qcurve" smooth="yes"/>
      <point x="1027" y="1097"/>
      <point x="1001" y="1062"/>
      <point x="987.5" y="1054.0" type="qcurve" smooth="yes"/>
      <point x="974" y="1046"/>
      <point x="944" y="1046"/>
      <point x="929" y="1051" type="qcurve" smooth="yes"/>
      <point x="868" y="1071"/>
      <point x="765" y="1090"/>
      <point x="714" y="1090" type="qcurve" smooth="yes"/>
      <point x="652" y="1090"/>
      <point x="569" y="1016"/>
      <point x="558" y="944" type="qcurve" smooth="yes"/>
      <point x="555" y="924" type="line"/>
      <point x="1022" y="924" type="line" smooth="yes"/>
      <point x="1056" y="924"/>
      <point x="1080" y="895"/>
      <point x="1074" y="861" type="qcurve" smooth="yes"/>
      <point x="973" y="286" type="line" smooth="yes"/>
      <point x="965" y="243"/>
      <point x="993" y="205"/>
      <point x="1021" y="205" type="qcurve" smooth="yes"/>
      <point x="1047" y="205"/>
      <point x="1103" y="216"/>
      <point x="1130" y="225" type="qcurve" smooth="yes"/>
      <point x="1163" y="236"/>
      <point x="1208" y="206"/>
      <point x="1218" y="146" type="qcurve" smooth="yes"/>
      <point x="1228" y="86"/>
      <point x="1204" y="28"/>
      <point x="1167" y="14" type="qcurve" smooth="yes"/>
      <point x="1119" y="-3"/>
      <point x="1015" y="-22"/>
      <point x="966" y="-22" type="qcurve" smooth="yes"/>
      <point x="899" y="-22"/>
      <point x="797" y="19"/>
      <point x="765.0" y="58.5" type="qcurve" smooth="yes"/>
      <point x="733" y="98"/>
      <point x="711" y="214"/>
      <point x="724" y="288" type="qcurve" smooth="yes"/>
      <point x="799" y="719" type="line"/>
      <point x="519" y="719" type="line"/>
      <point x="385" y="-45" type="line" smooth="yes"/>
      <point x="353" y="-228"/>
      <point x="162" y="-415"/>
    </contour>
  </outline>
</glyph>
<glyph name="comma.alt" format="2">
  <advance width="1228"/>
  <outline>
    <contour>
      <point x="720" y="-253" type="line" smooth="yes"/>
      <point x="706.0" y="-273.5"/>
      <point x="657.0" y="-294.0"/>
      <point x="622" y="-294" type="qcurve" smooth="yes"/>
      <point x="580" y="-294"/>
      <point x="538" y="-261"/>
      <point x="548" y="-228" type="qcurve" smooth="yes"/>
      <point x="713" y="314" type="line" smooth="yes"/>
      <point x="719" y="334"/>
      <point x="751" y="354"/>
      <point x="772" y="354" type="qcurve" smooth="yes"/>
      <point x="1071" y="354" type="line" smooth="yes"/>
      <point x="1096" y="354"/>
      <point x="1105" y="317"/>
      <point x="1088" y="291" type="qcurve" smooth="yes"/>
    </contour>
  </outline>
</glyph>
<glyph name="ellipsis.alt3" format="2">
  <advance width="1228"/>
  <outline>
    <contour>
      <point x="345" y="-22" type="qcurve" smooth="yes"/>
      <point x="318" y="-22"/>
      <point x="272" y="-2"/>
      <point x="255.5" y="15.0" type="qcurve" smooth="yes"/>
      <point x="239" y="32"/>
      <point x="220" y="77"/>
      <point x="220" y="103" type="qcurve" smooth="yes"/>
      <point x="220" y="137"/>
      <point x="247" y="195"/>
      <point x="269.0" y="216.5" type="qcurve" smooth="yes"/>
      <point x="291" y="238"/>
      <point x="349" y="262"/>
      <point x="381" y="262" type="qcurve" smooth="yes"/>
      <point x="408" y="262"/>
      <point x="454" y="242"/>
      <point x="470.5" y="225.5" type="qcurve" smooth="yes"/>
      <point x="487" y="209"/>
      <point x="505" y="163"/>
      <point x="505" y="138" type="qcurve" smooth="yes"/>
      <point x="505" y="104"/>
      <point x="479" y="45"/>
      <point x="457.0" y="23.5" type="qcurve" smooth="yes"/>
      <point x="435" y="2"/>
      <point x="377" y="-22"/>
    </contour>
    <contour>
      <point x="886" y="-22" type="qcurve" smooth="yes"/>
      <point x="859" y="-22"/>
      <point x="813" y="-2"/>
      <point x="796.5" y="15.0" type="qcurve" smooth="yes"/>
      <point x="780" y="32"/>
      <point x="761" y="77"/>
      <point x="761" y="103" type="qcurve" smooth="yes"/>
      <point x="761" y="137"/>
      <point x="788" y="195"/>
      <point x="810.0" y="216.5" type="qcurve" smooth="yes"/>
      <point x="832" y="238"/>
      <point x="890" y="262"/>
      <point x="922" y="262" type="qcurve" smooth="yes"/>
      <point x="949" y="262"/>
      <point x="995" y="242"/>
      <point x="1011.5" y="225.5" type="qcurve" smooth="yes"/>
      <point x="1028" y="209"/>
      <point x="1046" y="163"/>
      <point x="1046" y="138" type="qcurve" smooth="yes"/>
      <point x="1046" y="104"/>
      <point x="1020" y="45"/>
      <point x="998.0" y="23.5" type="qcurve" smooth="yes"/>
      <point x="976" y="2"/>
      <point x="918" y="-22"/>
    </contour>
    <contour>
      <point x="1427" y="-22" type="qcurve" smooth="yes"/>
      <point x="1400" y="-22"/>
      <point x="1354" y="-2"/>
      <point x="1337.5" y="15.0" type="qcurve" smooth="yes"/>
      <point x="1321" y="32"/>
      <point x="1302" y="77"/>
      <point x="1302" y="103" type="qcurve" smooth="yes"/>
      <point x="1302" y="137"/>
      <point x="1329" y="195"/>
      <point x="1351.0" y="216.5" type="qcurve" smooth="yes"/>
      <point x="1373" y="238"/>
      <point x="1431" y="262"/>
      <point x="1463" y="262" type="qcurve" smooth="yes"/>
      <point x="1490" y="262"/>
      <point x="1536" y="242"/>
      <point x="1552.5" y="225.5" type="qcurve" smooth="yes"/>
      <point x="1569" y="209"/>
      <point x="1587" y="163"/>
      <point x="1587" y="138" type="qcurve" smooth="yes"/>
      <point x="1587" y="104"/>
      <point x="1561" y="45"/>
      <point x="1539.0" y="23.5" type="qcurve" smooth="yes"/>
      <point x="1517" y="2"/>
      <point x="1459" y="-22"/>
    </contour>
  </outline>
</glyph>
<glyph name="emdash.alt4" format="2">
  <advance width="1228"/>
  <outline>
    <contour>
      <point x="1447" y="695" type="line" smooth="yes"/>
      <point x="1464" y="695"/>
      <point x="1486" y="686"/>
      <point x="1491.5" y="674.0" type="qcurve" smooth="yes"/>
      <point x="1497" y="662"/>
      <point x="1496" y="618"/>
      <point x="1490" y="582" type="qcurve" smooth="yes"/>
      <point x="1484" y="546"/>
      <point x="1469" y="502"/>
      <point x="1459.0" y="490.0" type="qcurve" smooth="yes"/>
      <point x="1449" y="478"/>
      <point x="1424" y="470"/>
      <point x="1407" y="470" type="qcurve" smooth="yes"/>
      <point x="-154" y="470" type="line" smooth="yes"/>
      <point x="-171" y="470"/>
      <point x="-193" y="478"/>
      <point x="-198.5" y="490.0" type="qcurve" smooth="yes"/>
      <point x="-204" y="502"/>
      <point x="-203" y="546"/>
      <point x="-197" y="582" type="qcurve" smooth="yes"/>
      <point x="-191" y="618"/>
      <point x="-176" y="662"/>
      <point x="-166.0" y="674.0" type="qcurve" smooth="yes"/>
      <point x="-156" y="686"/>
      <point x="-131" y="695"/>
      <point x="-114" y="695" type="qcurve" smooth="yes"/>
    </contour>
  </outline>
</glyph>
